<?xml version="1.0" encoding="UTF-8"?>
<!DOCTYPE svg PUBLIC "-//W3C//DTD SVG 1.1//EN" "http://www.w3.org/Graphics/SVG/1.1/DTD/svg11.dtd">
<svg xmlns="http://www.w3.org/2000/svg" version="1.1" width="1500px" height="1500px" style="shape-rendering:geometricPrecision; text-rendering:geometricPrecision; image-rendering:optimizeQuality; fill-rule:evenodd; clip-rule:evenodd" xmlns:xlink="http://www.w3.org/1999/xlink">
<g><path style="opacity:1" fill="#edbb4f" d="M 1129.5,588.5 C 1123.67,590.33 1119.33,593.997 1116.5,599.5C 1115.61,598.675 1115.28,597.675 1115.5,596.5C 1119.02,590.477 1123.69,585.477 1129.5,581.5C 1130.95,582.171 1131.61,583.338 1131.5,585C 1131.61,586.699 1130.95,587.866 1129.5,588.5 Z"/></g>
<g><path style="opacity:1" fill="#f6a60d" d="M 1129.5,588.5 C 1128.28,592.24 1126.78,595.907 1125,599.5C 1089.39,664.548 1053.89,729.715 1018.5,795C 1018.16,796.03 1017.5,796.53 1016.5,796.5C 1014.6,798.043 1012.77,799.709 1011,801.5C 1011.38,798.453 1011.38,795.453 1011,792.5C 1012,793.833 1013,793.833 1014,792.5C 1019.63,781.241 1025.3,769.908 1031,758.5C 1034.48,755.229 1036.82,751.229 1038,746.5C 1039.07,745.382 1040.24,744.382 1041.5,743.5C 1046.01,730.82 1052.34,719.153 1060.5,708.5C 1062.29,701.089 1065.62,694.589 1070.5,689C 1071.69,686.276 1072.35,683.443 1072.5,680.5C 1073.83,680.5 1075.17,680.5 1076.5,680.5C 1077.02,677.432 1077.86,674.432 1079,671.5C 1082.41,663.599 1086.74,656.265 1092,649.5C 1094.29,644.526 1096.62,639.526 1099,634.5C 1102.45,631.801 1103.95,628.134 1103.5,623.5C 1104.5,623.5 1105.5,623.5 1106.5,623.5C 1106.48,621.4 1107.14,619.567 1108.5,618C 1108.15,616.743 1107.48,616.409 1106.5,617C 1104,618.833 1101.83,621 1100,623.5C 1098.54,626.142 1098.21,628.809 1099,631.5C 1096.13,628.682 1094.63,629.348 1094.5,633.5C 1093.18,633.33 1092.01,633.663 1091,634.5C 1088.27,638.855 1085.11,642.855 1081.5,646.5C 1079.71,652.131 1076.21,656.464 1071,659.5C 1070.56,662.772 1068.73,664.439 1065.5,664.5C 1065.53,666.582 1064.86,668.416 1063.5,670C 1063.96,670.414 1064.29,670.914 1064.5,671.5C 1056.4,675.544 1052.07,681.877 1051.5,690.5C 1050.83,689.833 1050.17,689.167 1049.5,688.5C 1048.13,690.868 1046.13,692.534 1043.5,693.5C 1033.72,705.025 1024.38,717.025 1015.5,729.5C 1011.85,730.473 1010.19,732.807 1010.5,736.5C 1006.49,737.16 1004.49,739.494 1004.5,743.5C 1003.32,743.281 1002.32,743.614 1001.5,744.5C 1000.65,746.409 1000.32,748.409 1000.5,750.5C 996.846,750.751 994.679,752.751 994,756.5C 987.184,763.152 981.351,770.486 976.5,778.5C 970.856,781.758 967.689,786.758 967,793.5C 965.397,793.871 963.897,794.205 962.5,794.5C 960.743,795.292 959.409,796.625 958.5,798.5C 957.571,799.689 957.238,801.022 957.5,802.5C 954.365,802.548 952.698,804.215 952.5,807.5C 951.5,808.167 950.5,808.833 949.5,809.5C 945.968,815.243 941.968,820.576 937.5,825.5C 937.278,828.713 935.612,830.546 932.5,831C 925.992,839.506 919.492,848.006 913,856.5C 905.726,863.067 899.726,870.733 895,879.5C 892.289,882.042 889.789,884.709 887.5,887.5C 889.124,888.869 889.624,890.536 889,892.5C 887.266,891.362 885.432,890.862 883.5,891C 883.833,891.333 884.167,891.667 884.5,892C 882.112,894.05 880.112,896.384 878.5,899C 878.735,899.873 879.069,900.707 879.5,901.5C 884,901.833 888.5,902.167 893,902.5C 923.831,902.601 954.664,902.935 985.5,903.5C 983.995,904.842 983.328,906.508 983.5,908.5C 945.827,908.564 908.16,908.73 870.5,909C 867.694,907.695 866.86,905.528 868,902.5C 951.004,800.987 1033.5,698.987 1115.5,596.5C 1115.28,597.675 1115.61,598.675 1116.5,599.5C 1119.33,593.997 1123.67,590.33 1129.5,588.5 Z"/></g>
<g><path style="opacity:1" fill="#585056" d="M 305.5,736.5 C 333.672,736.169 361.672,736.502 389.5,737.5C 362.003,738.664 334.336,738.83 306.5,738C 305.944,737.617 305.611,737.117 305.5,736.5 Z"/></g>
<g><path style="opacity:1" fill="#201c21" d="M 604.5,738.5 C 604.389,739.117 604.056,739.617 603.5,740C 545.263,740.169 487.096,740.669 429,741.5C 428.517,740.552 428.351,739.552 428.5,738.5C 487.136,738.34 545.802,738.34 604.5,738.5 Z"/></g>
<g><path style="opacity:1" fill="#383739" d="M 236.5,736.5 C 246.506,736.334 256.506,736.5 266.5,737C 276.721,738.606 280.555,744.439 278,754.5C 276.5,757.333 274.333,759.5 271.5,761C 257.167,761.667 242.833,761.667 228.5,761C 221.93,757.345 219.763,751.845 222,744.5C 222.978,742.525 224.311,740.858 226,739.5C 229.757,738.971 233.257,737.971 236.5,736.5 Z"/></g>
<g><path style="opacity:1" fill="#373738" d="M 305.5,736.5 C 305.611,737.117 305.944,737.617 306.5,738C 334.336,738.83 362.003,738.664 389.5,737.5C 401.404,738.874 405.071,745.207 400.5,756.5C 398.641,758.192 396.641,759.692 394.5,761C 362.833,761.667 331.167,761.667 299.5,761C 292.442,757.631 290.108,752.131 292.5,744.5C 293.228,742.807 294.228,741.307 295.5,740C 299.019,739.148 302.353,737.981 305.5,736.5 Z"/></g>
<g><path style="opacity:1" fill="#363636" d="M 428.5,738.5 C 428.351,739.552 428.517,740.552 429,741.5C 487.096,740.669 545.263,740.169 603.5,740C 604.056,739.617 604.389,739.117 604.5,738.5C 617.438,738.569 626.271,744.569 631,756.5C 632.427,766.507 632.093,776.507 630,786.5C 624.249,812.322 618.915,838.322 614,864.5C 611.83,875.699 606.996,885.532 599.5,894C 593.071,899.427 585.905,903.594 578,906.5C 578.028,911.817 578.361,917.15 579,922.5C 582.808,941.615 585.641,960.948 587.5,980.5C 573.665,980.873 559.665,980.873 545.5,980.5C 532.482,980.501 519.815,981.168 507.5,982.5C 506.275,981.848 505.608,980.681 505.5,979C 501.314,955.359 497.814,931.525 495,907.5C 494.275,906.941 493.442,906.608 492.5,906.5C 489.737,907.477 486.904,908.143 484,908.5C 481.966,908.646 480.299,907.98 479,906.5C 477.333,907.167 475.667,907.833 474,908.5C 468.32,932.824 462.986,957.158 458,981.5C 457.329,982.252 456.496,982.586 455.5,982.5C 455.389,981.883 455.056,981.383 454.5,981C 428.928,980.828 403.428,980.328 378,979.5C 377.517,980.448 377.351,981.448 377.5,982.5C 376.351,982.209 375.684,981.376 375.5,980C 380.096,958.937 384.429,937.771 388.5,916.5C 390.639,920.757 393.306,924.757 396.5,928.5C 393.853,931.214 393.853,933.88 396.5,936.5C 397.298,934.922 397.798,933.256 398,931.5C 398.5,925.175 398.666,918.842 398.5,912.5C 400.484,912.617 402.15,911.95 403.5,910.5C 404.009,907.778 405.343,905.612 407.5,904C 405.146,900.945 405.812,898.445 409.5,896.5C 411.154,891.27 410.488,886.437 407.5,882C 408.99,881.255 409.99,880.088 410.5,878.5C 410.378,871.328 410.378,863.995 410.5,856.5C 411.552,856.649 412.552,856.483 413.5,856C 415.68,854.239 417.346,852.073 418.5,849.5C 419.495,844.208 419.828,838.875 419.5,833.5C 429.172,833.334 438.839,833.5 448.5,834C 450.667,836.167 452.833,838.333 455,840.5C 455.49,841.793 455.657,843.127 455.5,844.5C 457.5,844.5 459.5,844.5 461.5,844.5C 461.5,840.5 461.5,836.5 461.5,832.5C 460.167,832.5 458.833,832.5 457.5,832.5C 457.5,831.5 457.5,830.5 457.5,829.5C 445.833,829.5 434.167,829.5 422.5,829.5C 422.5,822.833 422.5,816.167 422.5,809.5C 423.5,809.5 424.5,809.5 425.5,809.5C 425.67,801.124 426.337,792.79 427.5,784.5C 427.116,779.823 425.783,775.49 423.5,771.5C 423.833,769.5 424.167,767.5 424.5,765.5C 424.36,763.97 423.693,762.97 422.5,762.5C 422.765,754.905 424.098,747.572 426.5,740.5C 426.747,739.287 427.414,738.62 428.5,738.5 Z M 502.5,770.5 C 518.167,770.5 533.833,770.5 549.5,770.5C 543.391,801.136 537.058,831.803 530.5,862.5C 529.754,866.132 529.421,869.798 529.5,873.5C 513.214,874.471 496.881,874.804 480.5,874.5C 487.5,839.613 494.833,804.946 502.5,770.5 Z"/></g>
<g><path style="opacity:1" fill="#2d2b2d" d="M 1240.5,771.5 C 1239.01,770.688 1238.34,769.355 1238.5,767.5C 1239.74,762.651 1239.74,757.817 1238.5,753C 1238.09,752.055 1237.43,751.388 1236.5,751C 1234.5,750.667 1232.5,750.333 1230.5,750C 1234.15,749.501 1237.82,749.335 1241.5,749.5C 1241.5,747.5 1241.5,745.5 1241.5,743.5C 1222.2,741.516 1202.87,741.183 1183.5,742.5C 1183.03,745.745 1183.03,749.079 1183.5,752.5C 1179.83,752.5 1176.17,752.5 1172.5,752.5C 1172.49,759.893 1171.83,767.227 1170.5,774.5C 1169.52,774.023 1168.69,773.357 1168,772.5C 1167.88,768.117 1167.71,763.617 1167.5,759C 1167.76,757.739 1168.43,756.739 1169.5,756C 1168.74,753.931 1168.24,751.764 1168,749.5C 1167.78,750.938 1167.28,752.271 1166.5,753.5C 1165.43,750.703 1165.43,747.869 1166.5,745C 1166.32,743.624 1165.65,742.791 1164.5,742.5C 1165.81,741.533 1166.47,740.199 1166.5,738.5C 1193.81,738.154 1221.15,738.154 1248.5,738.5C 1247.05,749.225 1244.89,759.891 1242,770.5C 1241.62,771.056 1241.12,771.389 1240.5,771.5 Z"/></g>
<g><path style="opacity:1" fill="#2e2c2e" d="M 1361.5,822.5 C 1359.08,821.308 1358.08,819.308 1358.5,816.5C 1358.67,811.962 1359.67,807.628 1361.5,803.5C 1361.57,801.334 1360.9,801.001 1359.5,802.5C 1358.17,795.167 1358.17,787.833 1359.5,780.5C 1360.44,782.589 1361.77,784.923 1363.5,787.5C 1364.48,787.023 1365.31,786.357 1366,785.5C 1366.98,780.022 1367.81,774.522 1368.5,769C 1368.79,767.11 1369.79,765.777 1371.5,765C 1370.45,763.612 1370.28,762.112 1371,760.5C 1371.33,760.833 1371.67,761.167 1372,761.5C 1372.03,759.82 1372.2,758.32 1372.5,757C 1371.77,755.601 1371.27,754.101 1371,752.5C 1369.47,751.08 1367.64,750.08 1365.5,749.5C 1366.38,748.029 1367.71,747.196 1369.5,747C 1368.62,745.644 1368.29,744.144 1368.5,742.5C 1351.85,741.667 1335.18,741.334 1318.5,741.5C 1318.5,744.167 1318.5,746.833 1318.5,749.5C 1320.83,749.5 1323.17,749.5 1325.5,749.5C 1325.83,753.884 1325.49,758.217 1324.5,762.5C 1323.53,760.257 1323.19,757.924 1323.5,755.5C 1319.5,755.5 1315.5,755.5 1311.5,755.5C 1311.72,754.325 1311.39,753.325 1310.5,752.5C 1308.02,751.771 1305.52,751.104 1303,750.5C 1301.29,751.57 1299.79,752.903 1298.5,754.5C 1295.36,751.661 1295.02,748.661 1297.5,745.5C 1296.97,743.664 1296.31,741.997 1295.5,740.5C 1295.61,739.883 1295.94,739.383 1296.5,739C 1323.72,737.758 1351.05,737.591 1378.5,738.5C 1372.66,766.33 1366.99,794.33 1361.5,822.5 Z"/></g>
<g><path style="opacity:1" fill="#363636" d="M 715.5,919.5 C 714.698,918.048 714.198,916.382 714,914.5C 712.486,920.21 710.653,925.876 708.5,931.5C 707.716,929.971 706.716,928.304 705.5,926.5C 704.349,925.269 703.183,925.269 702,926.5C 701.433,932.203 700.6,937.87 699.5,943.5C 699.232,947.19 700.565,950.023 703.5,952C 702.327,955.11 702.827,955.277 705,952.5C 705.739,953.574 706.739,954.241 708,954.5C 725.087,954.599 742.254,954.432 759.5,954C 761.314,951.519 761.98,948.685 761.5,945.5C 765.135,945.656 765.468,946.822 762.5,949C 765.194,950.19 767.861,950.356 770.5,949.5C 770.167,948.833 769.833,948.167 769.5,947.5C 773.518,942.492 774.185,943.159 771.5,949.5C 772.689,950.429 774.022,950.762 775.5,950.5C 774.624,939.859 773.957,929.193 773.5,918.5C 773.833,912.167 774.167,905.833 774.5,899.5C 775.524,898.147 776.857,897.48 778.5,897.5C 778.5,895.5 778.5,893.5 778.5,891.5C 780.143,891.52 781.476,890.853 782.5,889.5C 783.904,890.999 784.57,890.666 784.5,888.5C 783.022,885.396 783.189,882.396 785,879.5C 785.5,871.841 785.666,864.174 785.5,856.5C 786.833,856.5 788.167,856.5 789.5,856.5C 789.281,855.325 789.614,854.325 790.5,853.5C 792.747,852.626 795.08,852.292 797.5,852.5C 797.5,848.5 797.5,844.5 797.5,840.5C 792.987,838.717 789.32,835.717 786.5,831.5C 788.58,828.121 788.913,824.621 787.5,821C 787.793,817.906 789.459,816.406 792.5,816.5C 792.579,817.93 792.246,819.264 791.5,820.5C 793.85,821.774 793.683,823.107 791,824.5C 790.503,826.81 790.337,829.143 790.5,831.5C 792.5,832.167 794.5,832.833 796.5,833.5C 796.337,828.453 796.671,823.453 797.5,818.5C 801.231,818.705 804.231,817.371 806.5,814.5C 807.474,816.743 807.808,819.076 807.5,821.5C 808.833,821.5 810.167,821.5 811.5,821.5C 811.624,815.096 812.29,808.763 813.5,802.5C 812.07,802.579 810.736,802.246 809.5,801.5C 806.996,796.491 804.496,791.491 802,786.5C 800.644,785.62 799.144,785.286 797.5,785.5C 798.581,778.524 799.081,771.524 799,764.5C 798.617,763.944 798.117,763.611 797.5,763.5C 799.013,755.203 800.346,746.87 801.5,738.5C 829.167,738.5 856.833,738.5 884.5,738.5C 870.941,808.898 856.441,878.898 841,948.5C 839.703,953.09 837.87,957.423 835.5,961.5C 835.043,962.298 834.376,962.631 833.5,962.5C 833.565,962.062 833.399,961.728 833,961.5C 831.795,962.071 830.628,962.738 829.5,963.5C 826.712,967.244 823.379,970.41 819.5,973C 809.5,973.333 799.5,973.667 789.5,974C 793.856,974.024 797.856,975.191 801.5,977.5C 803.392,976.187 805.059,976.354 806.5,978C 804.485,978.424 802.651,979.258 801,980.5C 799.354,978.859 798.354,979.193 798,981.5C 750.038,980.878 701.704,980.211 653,979.5C 643.41,979.124 636.41,974.124 632,964.5C 631.667,960.833 631.333,957.167 631,953.5C 630.667,955.167 630.333,956.833 630,958.5C 629.667,953.833 629.333,949.167 629,944.5C 628.617,945.056 628.117,945.389 627.5,945.5C 642.531,876.649 657.198,807.649 671.5,738.5C 698.833,738.5 726.167,738.5 753.5,738.5C 741.552,799.265 728.886,859.598 715.5,919.5 Z"/></g>
<g><path style="opacity:1" fill="#363636" d="M 1295.5,740.5 C 1296.31,741.997 1296.97,743.664 1297.5,745.5C 1295.02,748.661 1295.36,751.661 1298.5,754.5C 1299.79,752.903 1301.29,751.57 1303,750.5C 1305.52,751.104 1308.02,751.771 1310.5,752.5C 1311.39,753.325 1311.72,754.325 1311.5,755.5C 1315.5,755.5 1319.5,755.5 1323.5,755.5C 1323.19,757.924 1323.53,760.257 1324.5,762.5C 1325.49,758.217 1325.83,753.884 1325.5,749.5C 1323.17,749.5 1320.83,749.5 1318.5,749.5C 1318.5,746.833 1318.5,744.167 1318.5,741.5C 1335.18,741.334 1351.85,741.667 1368.5,742.5C 1368.29,744.144 1368.62,745.644 1369.5,747C 1367.71,747.196 1366.38,748.029 1365.5,749.5C 1367.64,750.08 1369.47,751.08 1371,752.5C 1371.27,754.101 1371.77,755.601 1372.5,757C 1372.2,758.32 1372.03,759.82 1372,761.5C 1371.67,761.167 1371.33,760.833 1371,760.5C 1370.28,762.112 1370.45,763.612 1371.5,765C 1369.79,765.777 1368.79,767.11 1368.5,769C 1367.81,774.522 1366.98,780.022 1366,785.5C 1365.31,786.357 1364.48,787.023 1363.5,787.5C 1361.77,784.923 1360.44,782.589 1359.5,780.5C 1358.17,787.833 1358.17,795.167 1359.5,802.5C 1360.9,801.001 1361.57,801.334 1361.5,803.5C 1359.67,807.628 1358.67,811.962 1358.5,816.5C 1358.08,819.308 1359.08,821.308 1361.5,822.5C 1351.9,868.224 1342.06,913.891 1332,959.5C 1330.92,967.21 1329.76,974.877 1328.5,982.5C 1327.5,982.5 1326.5,982.5 1325.5,982.5C 1300.23,981.664 1274.9,980.998 1249.5,980.5C 1249.34,979.127 1249.51,977.793 1250,976.5C 1250.33,977.167 1250.67,977.833 1251,978.5C 1252.17,977.107 1253.67,976.273 1255.5,976C 1261.14,975.136 1266.81,974.469 1272.5,974C 1266.18,973.5 1259.84,973.334 1253.5,973.5C 1253.55,969.618 1253.22,965.618 1252.5,961.5C 1253.84,954.529 1255.5,947.696 1257.5,941C 1257.17,940.667 1256.83,940.333 1256.5,940C 1257.25,938.266 1257.75,936.433 1258,934.5C 1259.01,933.663 1260.18,933.33 1261.5,933.5C 1261.14,935.766 1261.81,937.599 1263.5,939C 1262.57,939.388 1261.91,940.055 1261.5,941C 1262.95,945.769 1262.45,946.269 1260,942.5C 1259.83,943 1259.67,943.5 1259.5,944C 1260.56,946.388 1261.9,948.554 1263.5,950.5C 1264.31,950.192 1264.97,949.692 1265.5,949C 1265.34,944.318 1265.34,939.485 1265.5,934.5C 1269.17,934.5 1272.83,934.5 1276.5,934.5C 1276.5,935.833 1276.5,937.167 1276.5,938.5C 1284.83,938.5 1293.17,938.5 1301.5,938.5C 1301.5,937.167 1301.5,935.833 1301.5,934.5C 1297.5,934.5 1293.5,934.5 1289.5,934.5C 1289.5,931.5 1289.5,928.5 1289.5,925.5C 1284.49,925.666 1279.49,925.499 1274.5,925C 1275.67,924.5 1276.5,923.667 1277,922.5C 1277.5,919.854 1277.66,917.187 1277.5,914.5C 1275.4,914.799 1273.4,914.466 1271.5,913.5C 1267.71,911.097 1264.71,907.931 1262.5,904C 1246.12,903.819 1229.79,903.319 1213.5,902.5C 1211.25,904.973 1209.08,904.973 1207,902.5C 1205.18,905.507 1205.01,908.674 1206.5,912C 1205.76,916.127 1205.26,920.294 1205,924.5C 1200.77,925.605 1200.61,926.938 1204.5,928.5C 1202.39,929.848 1200.56,929.515 1199,927.5C 1197.85,928.743 1196.51,929.743 1195,930.5C 1194.72,934.002 1194.55,937.335 1194.5,940.5C 1195.03,941.192 1195.69,941.692 1196.5,942C 1195.21,945.402 1194.54,949.069 1194.5,953C 1195.12,959.513 1195.12,965.679 1194.5,971.5C 1178.89,973.104 1163.22,973.937 1147.5,974C 1163.14,975.141 1178.8,975.308 1194.5,974.5C 1194.5,976.5 1194.5,978.5 1194.5,980.5C 1169.17,980.5 1143.83,980.5 1118.5,980.5C 1120.09,977.081 1120.75,973.415 1120.5,969.5C 1119.5,969.5 1118.5,969.5 1117.5,969.5C 1131.1,904.526 1144.93,839.526 1159,774.5C 1160.52,763.735 1162.35,753.068 1164.5,742.5C 1165.65,742.791 1166.32,743.624 1166.5,745C 1165.43,747.869 1165.43,750.703 1166.5,753.5C 1167.28,752.271 1167.78,750.938 1168,749.5C 1168.24,751.764 1168.74,753.931 1169.5,756C 1168.43,756.739 1167.76,757.739 1167.5,759C 1167.71,763.617 1167.88,768.117 1168,772.5C 1168.69,773.357 1169.52,774.023 1170.5,774.5C 1171.83,767.227 1172.49,759.893 1172.5,752.5C 1176.17,752.5 1179.83,752.5 1183.5,752.5C 1183.03,749.079 1183.03,745.745 1183.5,742.5C 1202.87,741.183 1222.2,741.516 1241.5,743.5C 1241.5,745.5 1241.5,747.5 1241.5,749.5C 1237.82,749.335 1234.15,749.501 1230.5,750C 1232.5,750.333 1234.5,750.667 1236.5,751C 1237.43,751.388 1238.09,752.055 1238.5,753C 1239.74,757.817 1239.74,762.651 1238.5,767.5C 1238.34,769.355 1239.01,770.688 1240.5,771.5C 1240,777.869 1239.16,784.202 1238,790.5C 1232.76,815.977 1227.09,841.31 1221,866.5C 1220.5,869.146 1220.34,871.813 1220.5,874.5C 1236.41,874.825 1252.24,874.491 1268,873.5C 1278.12,829.333 1287.29,785 1295.5,740.5 Z"/></g>
<g><path style="opacity:1" fill="#323132" d="M 422.5,762.5 C 423.693,762.97 424.36,763.97 424.5,765.5C 424.167,767.5 423.833,769.5 423.5,771.5C 425.783,775.49 427.116,779.823 427.5,784.5C 426.337,792.79 425.67,801.124 425.5,809.5C 424.5,809.5 423.5,809.5 422.5,809.5C 422.5,816.167 422.5,822.833 422.5,829.5C 434.167,829.5 445.833,829.5 457.5,829.5C 457.5,830.5 457.5,831.5 457.5,832.5C 458.833,832.5 460.167,832.5 461.5,832.5C 461.5,836.5 461.5,840.5 461.5,844.5C 459.5,844.5 457.5,844.5 455.5,844.5C 455.657,843.127 455.49,841.793 455,840.5C 452.833,838.333 450.667,836.167 448.5,834C 438.839,833.5 429.172,833.334 419.5,833.5C 419.828,838.875 419.495,844.208 418.5,849.5C 417.346,852.073 415.68,854.239 413.5,856C 412.552,856.483 411.552,856.649 410.5,856.5C 410.378,863.995 410.378,871.328 410.5,878.5C 409.99,880.088 408.99,881.255 407.5,882C 410.488,886.437 411.154,891.27 409.5,896.5C 405.812,898.445 405.146,900.945 407.5,904C 405.343,905.612 404.009,907.778 403.5,910.5C 402.15,911.95 400.484,912.617 398.5,912.5C 398.666,918.842 398.5,925.175 398,931.5C 397.798,933.256 397.298,934.922 396.5,936.5C 393.853,933.88 393.853,931.214 396.5,928.5C 393.306,924.757 390.639,920.757 388.5,916.5C 399.186,870.399 409.019,824.066 418,777.5C 419.089,772.322 420.589,767.322 422.5,762.5 Z"/></g>
<g><path style="opacity:1" fill="#f9a843" d="M 1080.5,809.5 C 1095.2,809.728 1109.86,810.395 1124.5,811.5C 1124.5,813.167 1124.5,814.833 1124.5,816.5C 1125.83,816.5 1127.17,816.5 1128.5,816.5C 1128.58,817.93 1128.25,819.264 1127.5,820.5C 1125.7,821.141 1124.2,822.141 1123,823.5C 1122.67,823.167 1122.33,822.833 1122,822.5C 1119.93,826.035 1117.76,829.368 1115.5,832.5C 1114.95,830.297 1113.62,829.464 1111.5,830C 1110.17,831 1110.17,832 1111.5,833C 1109.76,834.11 1108.42,835.61 1107.5,837.5C 1106.83,837.167 1106.17,836.833 1105.5,836.5C 1104.15,837.95 1102.48,838.617 1100.5,838.5C 1101.14,836.54 1101.14,834.707 1100.5,833C 1098.58,833.135 1096.58,833.302 1094.5,833.5C 1095.04,831.42 1095.88,829.42 1097,827.5C 1098.01,826.663 1099.18,826.33 1100.5,826.5C 1100.5,824.833 1100.5,823.167 1100.5,821.5C 1095.08,820.962 1089.74,820.962 1084.5,821.5C 1084.67,828.841 1084.5,836.174 1084,843.5C 1082.56,844.26 1081.06,844.926 1079.5,845.5C 1078.71,851.823 1078.04,858.156 1077.5,864.5C 1077.62,865.894 1077.95,867.228 1078.5,868.5C 1077.47,869.452 1076.3,869.452 1075,868.5C 1073.83,869.009 1073,869.842 1072.5,871C 1069.18,871.498 1065.85,871.665 1062.5,871.5C 1062.5,870.5 1062.5,869.5 1062.5,868.5C 1060.83,868.5 1059.17,868.5 1057.5,868.5C 1057.62,871.205 1056.62,871.872 1054.5,870.5C 1053.52,867.572 1053.18,864.572 1053.5,861.5C 1052.17,861.5 1050.83,861.5 1049.5,861.5C 1049.5,862.5 1049.5,863.5 1049.5,864.5C 1047.5,864.5 1045.5,864.5 1043.5,864.5C 1044.13,879.468 1043.13,894.301 1040.5,909C 1040.25,910.326 1039.58,911.326 1038.5,912C 1036.19,912.497 1033.86,912.663 1031.5,912.5C 1031.5,913.833 1031.5,915.167 1031.5,916.5C 1033.51,915.986 1035.51,915.82 1037.5,916C 1038.34,917.011 1038.67,918.178 1038.5,919.5C 1036.17,919.5 1033.83,919.5 1031.5,919.5C 1031.71,921.92 1031.37,924.253 1030.5,926.5C 1033.33,926.511 1036.33,926.844 1039.5,927.5C 1039.81,931.201 1038.14,933.534 1034.5,934.5C 1031.22,939.284 1027.72,943.951 1024,948.5C 1018.22,953.439 1013.72,959.272 1010.5,966C 1012.18,965.229 1013.85,965.395 1015.5,966.5C 1015.71,968.179 1015.05,969.179 1013.5,969.5C 1012.01,967.155 1010.01,966.821 1007.5,968.5C 1004.14,972.076 1000.3,975.076 996,977.5C 995.693,974.124 993.86,972.79 990.5,973.5C 990.496,978.072 988.829,979.072 985.5,976.5C 984.935,978.51 983.935,980.176 982.5,981.5C 979.549,980.047 977.049,978.047 975,975.5C 974.505,973.527 974.338,971.527 974.5,969.5C 977.86,969.384 981.193,969.051 984.5,968.5C 984.5,969.833 984.5,971.167 984.5,972.5C 985.93,972.579 987.264,972.246 988.5,971.5C 988.673,967.304 990.673,964.471 994.5,963C 991.707,962.256 990.207,960.423 990,957.5C 988.817,956.269 987.651,956.269 986.5,957.5C 987.645,958.891 987.645,960.224 986.5,961.5C 983.324,963.034 980.657,962.367 978.5,959.5C 979.853,958.476 980.52,957.143 980.5,955.5C 981.5,955.5 982.5,955.5 983.5,955.5C 983.664,952.813 983.497,950.146 983,947.5C 981.278,947.038 979.445,946.872 977.5,947C 974.874,943.931 975.207,941.098 978.5,938.5C 979.806,939.912 980.64,941.579 981,943.5C 981.718,944.451 982.551,944.617 983.5,944C 984.406,942.301 984.739,940.467 984.5,938.5C 986.167,938.5 987.833,938.5 989.5,938.5C 989.367,943.272 990.7,943.438 993.5,939C 991.893,937.951 991.227,936.451 991.5,934.5C 989.167,934.5 986.833,934.5 984.5,934.5C 984.336,931.813 984.503,929.146 985,926.5C 986.209,923.293 987.209,919.959 988,916.5C 990.905,912.673 993.905,912.673 997,916.5C 997.093,912.159 997.093,907.826 997,903.5C 997.333,903.167 997.667,902.833 998,902.5C 1000.16,905.157 1002.66,906.49 1005.5,906.5C 1006.41,907.328 1007.08,908.328 1007.5,909.5C 1005.84,910.327 1004.5,911.493 1003.5,913C 1002.55,913.483 1001.55,913.649 1000.5,913.5C 1000.33,917.514 1000.5,921.514 1001,925.5C 1003,926.833 1005,926.833 1007,925.5C 1007.5,921.848 1007.67,918.182 1007.5,914.5C 1009.17,914.5 1010.83,914.5 1012.5,914.5C 1012.21,910.563 1012.54,906.73 1013.5,903C 1019.83,902.667 1026.17,902.333 1032.5,902C 1035.26,898.571 1037.92,895.071 1040.5,891.5C 1039.67,891.167 1038.83,890.833 1038,890.5C 1035.38,892.114 1033.05,894.114 1031,896.5C 1030.52,897.448 1030.35,898.448 1030.5,899.5C 1023.68,900.001 1017.02,899.335 1010.5,897.5C 1008.67,898.821 1006.67,899.821 1004.5,900.5C 1003.82,896.691 1005.16,893.858 1008.5,892C 1006.61,884.333 1005.94,876.5 1006.5,868.5C 999.167,868.5 991.833,868.5 984.5,868.5C 984.938,876.943 984.438,885.277 983,893.5C 982.586,893.043 982.086,892.709 981.5,892.5C 980.502,884.528 980.169,876.528 980.5,868.5C 976.167,868.5 971.833,868.5 967.5,868.5C 967.5,871.833 967.5,875.167 967.5,878.5C 971.167,878.5 974.833,878.5 978.5,878.5C 978.666,882.846 978.499,887.179 978,891.5C 977.682,893.061 976.849,894.228 975.5,895C 978.019,896.156 980.352,896.656 982.5,896.5C 976.374,900.274 969.707,901.44 962.5,900C 960.519,899.395 960.185,898.395 961.5,897C 964.726,895.801 968.059,895.301 971.5,895.5C 971.827,890.786 971.493,886.12 970.5,881.5C 968.592,884.375 966.592,887.208 964.5,890C 965.337,891.011 965.67,892.178 965.5,893.5C 963.876,893.64 962.71,892.973 962,891.5C 960.933,893.283 959.433,893.783 957.5,893C 958.624,892.751 959.624,892.251 960.5,891.5C 959.574,887.906 959.241,884.24 959.5,880.5C 956.15,880.665 952.817,880.498 949.5,880C 953.486,879.501 957.486,879.334 961.5,879.5C 961.5,875.833 961.5,872.167 961.5,868.5C 966.805,867.806 972.138,867.472 977.5,867.5C 977.5,864.5 977.5,861.5 977.5,858.5C 972.167,858.5 966.833,858.5 961.5,858.5C 961.5,857.5 961.5,856.5 961.5,855.5C 958.833,855.5 956.167,855.5 953.5,855.5C 953.176,851.445 953.509,847.445 954.5,843.5C 955.842,845.005 957.508,845.672 959.5,845.5C 959.5,846.5 959.5,847.5 959.5,848.5C 962.5,848.167 964.167,846.5 964.5,843.5C 963.5,843.5 962.5,843.5 961.5,843.5C 961.5,837.833 961.5,832.167 961.5,826.5C 958.432,826.453 955.432,825.953 952.5,825C 951.939,823.324 950.939,821.991 949.5,821C 955.439,819.43 957.439,815.763 955.5,810C 957.478,809.519 958.811,808.353 959.5,806.5C 959.951,802.307 960.951,798.307 962.5,794.5C 963.815,795.476 965.148,796.476 966.5,797.5C 966.296,796.471 966.796,795.471 968,794.5C 971.65,794.074 975.65,794.74 980,796.5C 982.912,796.642 984.412,795.309 984.5,792.5C 981.243,792.236 979.243,790.57 978.5,787.5C 980.5,787.5 982.5,787.5 984.5,787.5C 984.172,782.125 984.505,776.792 985.5,771.5C 987.071,773.415 989.071,774.415 991.5,774.5C 991.351,773.448 991.517,772.448 992,771.5C 996.862,774.004 1002.03,774.671 1007.5,773.5C 1007.45,776.198 1008.45,778.364 1010.5,780C 1010.17,780.333 1009.83,780.667 1009.5,781C 1005.27,782.29 1000.94,782.79 996.5,782.5C 996.5,780.833 996.5,779.167 996.5,777.5C 992.815,779.032 989.815,781.532 987.5,785C 989.256,788.616 989.923,792.449 989.5,796.5C 987.533,796.261 985.699,796.594 984,797.5C 983.503,800.146 983.336,802.813 983.5,805.5C 979.5,805.5 975.5,805.5 971.5,805.5C 971.5,806.833 971.5,808.167 971.5,809.5C 979.833,809.5 988.167,809.5 996.5,809.5C 996.5,805.833 996.5,802.167 996.5,798.5C 999.833,798.5 1003.17,798.5 1006.5,798.5C 1006.5,801.167 1006.5,803.833 1006.5,806.5C 1009.58,806.804 1012.41,807.804 1015,809.5C 1015.55,804.93 1016.72,804.597 1018.5,808.5C 1019.77,807.954 1021.11,807.621 1022.5,807.5C 1025.44,808.47 1028.44,809.137 1031.5,809.5C 1031.5,810.5 1031.5,811.5 1031.5,812.5C 1032.83,812.5 1034.17,812.5 1035.5,812.5C 1036.17,814.5 1036.83,816.5 1037.5,818.5C 1035.71,818.215 1034.05,818.548 1032.5,819.5C 1034,820.842 1034.67,822.508 1034.5,824.5C 1033.17,824.5 1031.83,824.5 1030.5,824.5C 1030.5,823.5 1030.5,822.5 1030.5,821.5C 1028.47,821.662 1026.47,821.495 1024.5,821C 1023.1,819.562 1021.43,818.729 1019.5,818.5C 1019.5,826.833 1019.5,835.167 1019.5,843.5C 1023.17,843.5 1026.83,843.5 1030.5,843.5C 1030.5,839.833 1030.5,836.167 1030.5,832.5C 1035.83,832.5 1041.17,832.5 1046.5,832.5C 1046.5,827.833 1046.5,823.167 1046.5,818.5C 1048.4,818.567 1050.23,818.233 1052,817.5C 1053.58,817.988 1054.75,818.988 1055.5,820.5C 1057.86,818.713 1060.53,817.713 1063.5,817.5C 1063.5,816.5 1063.5,815.5 1063.5,814.5C 1060.44,814.442 1058.11,813.108 1056.5,810.5C 1064.47,809.502 1072.47,809.169 1080.5,809.5 Z"/></g>
<g><path style="opacity:1" fill="#faaa3f" d="M 1016.5,796.5 C 1016.88,797.931 1017.88,798.764 1019.5,799C 1021.81,799.497 1024.14,799.663 1026.5,799.5C 1026.61,800.117 1026.94,800.617 1027.5,801C 1023.08,801.208 1018.75,801.874 1014.5,803C 1017.1,803.92 1019.77,804.587 1022.5,805C 1037.94,807.057 1057.27,808.557 1080.5,809.5C 1072.47,809.169 1064.47,809.502 1056.5,810.5C 1058.11,813.108 1060.44,814.442 1063.5,814.5C 1063.5,815.5 1063.5,816.5 1063.5,817.5C 1060.53,817.713 1057.86,818.713 1055.5,820.5C 1054.75,818.988 1053.58,817.988 1052,817.5C 1050.23,818.233 1048.4,818.567 1046.5,818.5C 1046.5,823.167 1046.5,827.833 1046.5,832.5C 1041.17,832.5 1035.83,832.5 1030.5,832.5C 1030.5,836.167 1030.5,839.833 1030.5,843.5C 1026.83,843.5 1023.17,843.5 1019.5,843.5C 1019.5,835.167 1019.5,826.833 1019.5,818.5C 1021.43,818.729 1023.1,819.562 1024.5,821C 1026.47,821.495 1028.47,821.662 1030.5,821.5C 1030.5,822.5 1030.5,823.5 1030.5,824.5C 1031.83,824.5 1033.17,824.5 1034.5,824.5C 1034.67,822.508 1034,820.842 1032.5,819.5C 1034.05,818.548 1035.71,818.215 1037.5,818.5C 1036.83,816.5 1036.17,814.5 1035.5,812.5C 1034.17,812.5 1032.83,812.5 1031.5,812.5C 1031.5,811.5 1031.5,810.5 1031.5,809.5C 1028.44,809.137 1025.44,808.47 1022.5,807.5C 1021.11,807.621 1019.77,807.954 1018.5,808.5C 1016.72,804.597 1015.55,804.93 1015,809.5C 1012.41,807.804 1009.58,806.804 1006.5,806.5C 1006.5,803.833 1006.5,801.167 1006.5,798.5C 1003.17,798.5 999.833,798.5 996.5,798.5C 996.5,802.167 996.5,805.833 996.5,809.5C 988.167,809.5 979.833,809.5 971.5,809.5C 971.5,808.167 971.5,806.833 971.5,805.5C 975.5,805.5 979.5,805.5 983.5,805.5C 983.336,802.813 983.503,800.146 984,797.5C 985.699,796.594 987.533,796.261 989.5,796.5C 989.923,792.449 989.256,788.616 987.5,785C 989.815,781.532 992.815,779.032 996.5,777.5C 996.5,779.167 996.5,780.833 996.5,782.5C 1000.94,782.79 1005.27,782.29 1009.5,781C 1009.83,780.667 1010.17,780.333 1010.5,780C 1008.45,778.364 1007.45,776.198 1007.5,773.5C 1002.03,774.671 996.862,774.004 992,771.5C 991.517,772.448 991.351,773.448 991.5,774.5C 989.071,774.415 987.071,773.415 985.5,771.5C 984.505,776.792 984.172,782.125 984.5,787.5C 982.5,787.5 980.5,787.5 978.5,787.5C 979.243,790.57 981.243,792.236 984.5,792.5C 984.412,795.309 982.912,796.642 980,796.5C 975.65,794.74 971.65,794.074 968,794.5C 966.796,795.471 966.296,796.471 966.5,797.5C 965.148,796.476 963.815,795.476 962.5,794.5C 963.897,794.205 965.397,793.871 967,793.5C 967.689,786.758 970.856,781.758 976.5,778.5C 981.351,770.486 987.184,763.152 994,756.5C 994.679,752.751 996.846,750.751 1000.5,750.5C 1000.32,748.409 1000.65,746.409 1001.5,744.5C 1002.32,743.614 1003.32,743.281 1004.5,743.5C 1004.49,739.494 1006.49,737.16 1010.5,736.5C 1010.19,732.807 1011.85,730.473 1015.5,729.5C 1024.38,717.025 1033.72,705.025 1043.5,693.5C 1046.13,692.534 1048.13,690.868 1049.5,688.5C 1050.17,689.167 1050.83,689.833 1051.5,690.5C 1052.07,681.877 1056.4,675.544 1064.5,671.5C 1064.29,670.914 1063.96,670.414 1063.5,670C 1064.86,668.416 1065.53,666.582 1065.5,664.5C 1068.73,664.439 1070.56,662.772 1071,659.5C 1076.21,656.464 1079.71,652.131 1081.5,646.5C 1085.11,642.855 1088.27,638.855 1091,634.5C 1092.01,633.663 1093.18,633.33 1094.5,633.5C 1094.63,629.348 1096.13,628.682 1099,631.5C 1098.21,628.809 1098.54,626.142 1100,623.5C 1101.83,621 1104,618.833 1106.5,617C 1107.48,616.409 1108.15,616.743 1108.5,618C 1107.14,619.567 1106.48,621.4 1106.5,623.5C 1105.5,623.5 1104.5,623.5 1103.5,623.5C 1103.95,628.134 1102.45,631.801 1099,634.5C 1096.62,639.526 1094.29,644.526 1092,649.5C 1086.74,656.265 1082.41,663.599 1079,671.5C 1077.86,674.432 1077.02,677.432 1076.5,680.5C 1075.17,680.5 1073.83,680.5 1072.5,680.5C 1072.35,683.443 1071.69,686.276 1070.5,689C 1065.62,694.589 1062.29,701.089 1060.5,708.5C 1052.34,719.153 1046.01,730.82 1041.5,743.5C 1040.24,744.382 1039.07,745.382 1038,746.5C 1036.82,751.229 1034.48,755.229 1031,758.5C 1025.3,769.908 1019.63,781.241 1014,792.5C 1013,793.833 1012,793.833 1011,792.5C 1011.38,795.453 1011.38,798.453 1011,801.5C 1012.77,799.709 1014.6,798.043 1016.5,796.5 Z"/></g>
<g><path style="opacity:1" fill="#fab556" d="M 140.5,791.5 C 148.253,791.201 155.92,791.534 163.5,792.5C 163.389,793.117 163.056,793.617 162.5,794C 154.833,794.667 147.167,794.667 139.5,794C 139.167,793.667 138.833,793.333 138.5,793C 139.416,792.722 140.082,792.222 140.5,791.5 Z"/></g>
<g><path style="opacity:1" fill="#302f30" d="M 529.5,873.5 C 529.421,869.798 529.754,866.132 530.5,862.5C 537.058,831.803 543.391,801.136 549.5,770.5C 533.833,770.5 518.167,770.5 502.5,770.5C 502.881,769.069 503.881,768.236 505.5,768C 511.167,767.667 516.833,767.333 522.5,767C 518.143,765.919 513.809,765.752 509.5,766.5C 506.99,766.167 504.823,765.167 503,763.5C 499.893,762.88 496.893,763.546 494,765.5C 491.027,765.028 491.193,764.195 494.5,763C 513.5,762.333 532.5,762.333 551.5,763C 550.833,765 549.5,766.333 547.5,767C 552.625,767.385 554.791,769.885 554,774.5C 557.915,776.289 560.248,774.956 561,770.5C 562.188,771.563 562.688,772.897 562.5,774.5C 566.792,775.249 569.792,777.583 571.5,781.5C 572.325,782.386 573.325,782.719 574.5,782.5C 574.5,784.833 574.5,787.167 574.5,789.5C 573.448,789.351 572.448,789.517 571.5,790C 570.575,793.095 568.575,794.928 565.5,795.5C 565.5,796.5 565.5,797.5 565.5,798.5C 564.5,798.5 563.5,798.5 562.5,798.5C 562.5,799.5 562.5,800.5 562.5,801.5C 558.476,801.262 554.81,800.262 551.5,798.5C 550.193,809.829 550.193,821.162 551.5,832.5C 552.978,832.238 554.311,832.571 555.5,833.5C 557.678,835.934 559.012,838.768 559.5,842C 558.263,845.043 555.93,846.21 552.5,845.5C 552.913,850.238 552.247,854.738 550.5,859C 550.943,860.825 551.277,862.658 551.5,864.5C 547.5,861.833 543.5,859.167 539.5,856.5C 539.281,863.582 539.281,870.582 539.5,877.5C 538.537,879.49 537.204,879.823 535.5,878.5C 534.948,876.997 534.948,875.331 535.5,873.5C 531.5,873.167 531.5,872.833 535.5,872.5C 535.769,870.571 535.269,868.905 534,867.5C 533.347,869.564 532.18,871.231 530.5,872.5C 531.59,873.609 531.59,874.609 530.5,875.5C 529.702,875.043 529.369,874.376 529.5,873.5 Z"/></g>
<g><path style="opacity:1" fill="#faa93d" d="M 304.5,792.5 C 300.528,793.108 296.528,793.608 292.5,794C 262.167,794.333 231.833,794.667 201.5,795C 202.167,795.667 202.833,796.333 203.5,797C 261.825,796.415 320.158,796.415 378.5,797C 380.754,798.377 382.92,799.877 385,801.5C 386.718,806.385 385.218,809.551 380.5,811C 323.833,811.667 267.167,811.667 210.5,811C 206.167,810.667 201.833,810.333 197.5,810C 196.773,808.601 196.273,807.101 196,805.5C 195.667,805.833 195.333,806.167 195,806.5C 194.51,805.207 194.343,803.873 194.5,802.5C 196.978,801.805 198.978,800.305 200.5,798C 198.953,797.667 197.62,798.167 196.5,799.5C 194.951,797.23 193.617,797.563 192.5,800.5C 191.604,802.801 191.438,805.134 192,807.5C 193.445,810.09 194.612,812.757 195.5,815.5C 190.675,813.983 188.675,810.65 189.5,805.5C 188.843,799.646 191.176,795.48 196.5,793C 202.46,792.047 208.46,791.547 214.5,791.5C 244.667,792.377 274.667,792.711 304.5,792.5 Z"/></g>
<g><path style="opacity:1" fill="#fab847" d="M 1071.5,802.5 C 1086.37,803.729 1101.37,804.729 1116.5,805.5C 1118.31,807.197 1120.64,808.03 1123.5,808C 1098.46,807.608 1073.46,806.275 1048.5,804C 1056.11,802.738 1063.78,802.238 1071.5,802.5 Z"/></g>
<g><path style="opacity:1" fill="#f8a519" d="M 140.5,791.5 C 140.082,792.222 139.416,792.722 138.5,793C 138.833,793.333 139.167,793.667 139.5,794C 147.167,794.667 154.833,794.667 162.5,794C 163.056,793.617 163.389,793.117 163.5,792.5C 173.577,793.751 177.743,799.418 176,809.5C 175.215,811.286 174.049,812.786 172.5,814C 168.838,816.325 164.838,817.658 160.5,818C 152.167,818.667 143.833,818.667 135.5,818C 122.567,817.411 117.733,810.911 121,798.5C 122.5,797 124,795.5 125.5,794C 130.446,792.839 135.446,792.006 140.5,791.5 Z"/></g>
<g><path style="opacity:1" fill="#faa93e" d="M 134.5,796.5 C 144.167,797.028 153.833,797.695 163.5,798.5C 171.261,800.42 172.594,804.586 167.5,811C 158.089,811.662 148.756,811.162 139.5,809.5C 138.452,810.383 137.285,811.05 136,811.5C 133.23,810.652 130.397,810.319 127.5,810.5C 126.851,808.523 126.851,806.69 127.5,805C 127.095,804.055 126.428,803.388 125.5,803C 127.595,799.381 130.595,797.215 134.5,796.5 Z"/></g>
<g><path style="opacity:1" fill="#f9a916" d="M 388.5,813.5 C 385.76,811.934 383.427,812.434 381.5,815C 367.504,815.5 353.504,815.667 339.5,815.5C 293.488,814.838 247.821,815.505 202.5,817.5C 199.789,817.815 197.456,817.148 195.5,815.5C 194.612,812.757 193.445,810.09 192,807.5C 191.438,805.134 191.604,802.801 192.5,800.5C 193.617,797.563 194.951,797.23 196.5,799.5C 197.62,798.167 198.953,797.667 200.5,798C 198.978,800.305 196.978,801.805 194.5,802.5C 194.343,803.873 194.51,805.207 195,806.5C 195.333,806.167 195.667,805.833 196,805.5C 196.273,807.101 196.773,808.601 197.5,810C 201.833,810.333 206.167,810.667 210.5,811C 267.167,811.667 323.833,811.667 380.5,811C 385.218,809.551 386.718,806.385 385,801.5C 382.92,799.877 380.754,798.377 378.5,797C 320.158,796.415 261.825,796.415 203.5,797C 202.833,796.333 202.167,795.667 201.5,795C 231.833,794.667 262.167,794.333 292.5,794C 296.528,793.608 300.528,793.108 304.5,792.5C 327.348,792.786 350.182,792.453 373,791.5C 389.319,791.452 394.485,798.786 388.5,813.5 Z"/></g>
<g><path style="opacity:1" fill="#faae3f" d="M 388.5,813.5 C 386.654,816.22 383.987,817.72 380.5,818C 322.501,818.5 264.501,818.667 206.5,818.5C 251.009,818.165 295.343,817.165 339.5,815.5C 353.504,815.667 367.504,815.5 381.5,815C 383.427,812.434 385.76,811.934 388.5,813.5 Z"/></g>
<g><path style="opacity:1" fill="#fab956" d="M 339.5,815.5 C 295.343,817.165 251.009,818.165 206.5,818.5C 204.901,818.768 203.568,818.434 202.5,817.5C 247.821,815.505 293.488,814.838 339.5,815.5 Z"/></g>
<g><path style="opacity:1" fill="#312f30" d="M 797.5,763.5 C 798.117,763.611 798.617,763.944 799,764.5C 799.081,771.524 798.581,778.524 797.5,785.5C 799.144,785.286 800.644,785.62 802,786.5C 804.496,791.491 806.996,796.491 809.5,801.5C 810.736,802.246 812.07,802.579 813.5,802.5C 812.29,808.763 811.624,815.096 811.5,821.5C 810.167,821.5 808.833,821.5 807.5,821.5C 807.808,819.076 807.474,816.743 806.5,814.5C 804.231,817.371 801.231,818.705 797.5,818.5C 796.671,823.453 796.337,828.453 796.5,833.5C 794.5,832.833 792.5,832.167 790.5,831.5C 790.337,829.143 790.503,826.81 791,824.5C 793.683,823.107 793.85,821.774 791.5,820.5C 792.246,819.264 792.579,817.93 792.5,816.5C 789.459,816.406 787.793,817.906 787.5,821C 788.913,824.621 788.58,828.121 786.5,831.5C 789.32,835.717 792.987,838.717 797.5,840.5C 797.5,844.5 797.5,848.5 797.5,852.5C 795.08,852.292 792.747,852.626 790.5,853.5C 789.614,854.325 789.281,855.325 789.5,856.5C 788.167,856.5 786.833,856.5 785.5,856.5C 785.666,864.174 785.5,871.841 785,879.5C 783.189,882.396 783.022,885.396 784.5,888.5C 784.57,890.666 783.904,890.999 782.5,889.5C 781.476,890.853 780.143,891.52 778.5,891.5C 778.5,893.5 778.5,895.5 778.5,897.5C 776.857,897.48 775.524,898.147 774.5,899.5C 774.167,905.833 773.833,912.167 773.5,918.5C 773.957,929.193 774.624,939.859 775.5,950.5C 774.022,950.762 772.689,950.429 771.5,949.5C 774.185,943.159 773.518,942.492 769.5,947.5C 769.833,948.167 770.167,948.833 770.5,949.5C 767.861,950.356 765.194,950.19 762.5,949C 765.468,946.822 765.135,945.656 761.5,945.5C 761.98,948.685 761.314,951.519 759.5,954C 742.254,954.432 725.087,954.599 708,954.5C 706.739,954.241 705.739,953.574 705,952.5C 702.827,955.277 702.327,955.11 703.5,952C 700.565,950.023 699.232,947.19 699.5,943.5C 700.6,937.87 701.433,932.203 702,926.5C 703.183,925.269 704.349,925.269 705.5,926.5C 706.716,928.304 707.716,929.971 708.5,931.5C 710.653,925.876 712.486,920.21 714,914.5C 714.198,916.382 714.698,918.048 715.5,919.5C 713.817,929.937 711.817,940.27 709.5,950.5C 709.833,951.167 710.167,951.833 710.5,952.5C 726.247,951.527 741.747,951.527 757,952.5C 770.191,890.133 783.191,827.8 796,765.5C 796.717,764.956 797.217,764.289 797.5,763.5 Z"/></g>
<g><path style="opacity:1" fill="#363636" d="M 318.5,848.5 C 336.195,848.193 353.861,848.527 371.5,849.5C 373.909,850.701 375.909,852.367 377.5,854.5C 380.704,862.804 378.371,868.638 370.5,872C 352.5,872.667 334.5,872.667 316.5,872C 311.382,869.984 309.048,866.15 309.5,860.5C 309.385,857.612 310.052,854.945 311.5,852.5C 314.085,851.437 316.418,850.103 318.5,848.5 Z"/></g>
<g><path style="opacity:1" fill="#343535" d="M 259.5,848.5 C 269.533,848.216 279.533,848.549 289.5,849.5C 295.543,853.1 297.709,858.434 296,865.5C 294.413,868.756 291.913,870.923 288.5,872C 277.76,872.928 267.093,872.595 256.5,871C 249.833,865.853 248.833,859.687 253.5,852.5C 255.577,851.115 257.577,849.782 259.5,848.5 Z"/></g>
<g><path style="opacity:1" fill="#faad42" d="M 1115.5,832.5 C 1107.7,845.145 1098.53,856.812 1088,867.5C 1083.26,874.187 1078.43,880.854 1073.5,887.5C 1072.17,888.5 1070.83,889.5 1069.5,890.5C 1066.96,894.945 1063.96,898.945 1060.5,902.5C 1059.26,903.246 1057.93,903.579 1056.5,903.5C 1055.85,907.298 1054.85,910.964 1053.5,914.5C 1052.17,914.5 1050.83,914.5 1049.5,914.5C 1048.89,917.076 1047.73,919.409 1046,921.5C 1043.94,923.728 1041.78,925.728 1039.5,927.5C 1036.33,926.844 1033.33,926.511 1030.5,926.5C 1031.37,924.253 1031.71,921.92 1031.5,919.5C 1033.83,919.5 1036.17,919.5 1038.5,919.5C 1038.67,918.178 1038.34,917.011 1037.5,916C 1035.51,915.82 1033.51,915.986 1031.5,916.5C 1031.5,915.167 1031.5,913.833 1031.5,912.5C 1033.86,912.663 1036.19,912.497 1038.5,912C 1039.58,911.326 1040.25,910.326 1040.5,909C 1043.13,894.301 1044.13,879.468 1043.5,864.5C 1045.5,864.5 1047.5,864.5 1049.5,864.5C 1049.5,863.5 1049.5,862.5 1049.5,861.5C 1050.83,861.5 1052.17,861.5 1053.5,861.5C 1053.18,864.572 1053.52,867.572 1054.5,870.5C 1056.62,871.872 1057.62,871.205 1057.5,868.5C 1059.17,868.5 1060.83,868.5 1062.5,868.5C 1062.5,869.5 1062.5,870.5 1062.5,871.5C 1065.85,871.665 1069.18,871.498 1072.5,871C 1073,869.842 1073.83,869.009 1075,868.5C 1076.3,869.452 1077.47,869.452 1078.5,868.5C 1077.95,867.228 1077.62,865.894 1077.5,864.5C 1078.04,858.156 1078.71,851.823 1079.5,845.5C 1081.06,844.926 1082.56,844.26 1084,843.5C 1084.5,836.174 1084.67,828.841 1084.5,821.5C 1089.74,820.962 1095.08,820.962 1100.5,821.5C 1100.5,823.167 1100.5,824.833 1100.5,826.5C 1099.18,826.33 1098.01,826.663 1097,827.5C 1095.88,829.42 1095.04,831.42 1094.5,833.5C 1096.58,833.302 1098.58,833.135 1100.5,833C 1101.14,834.707 1101.14,836.54 1100.5,838.5C 1102.48,838.617 1104.15,837.95 1105.5,836.5C 1106.17,836.833 1106.83,837.167 1107.5,837.5C 1108.42,835.61 1109.76,834.11 1111.5,833C 1110.17,832 1110.17,831 1111.5,830C 1113.62,829.464 1114.95,830.297 1115.5,832.5 Z"/></g>
<g><path style="opacity:1" fill="#fab450" d="M 199.5,902.5 C 199.414,903.496 199.748,904.329 200.5,905C 191.149,905.168 181.816,905.668 172.5,906.5C 169.68,907.236 167.68,908.902 166.5,911.5C 165.702,911.043 165.369,910.376 165.5,909.5C 167.102,906.177 169.769,904.011 173.5,903C 182.16,902.5 190.827,902.334 199.5,902.5 Z"/></g>
<g><path style="opacity:1" fill="#fabe63" d="M 362.5,905.5 C 317.167,905.5 271.833,905.5 226.5,905.5C 227.534,904.313 228.867,903.48 230.5,903C 273.167,902.333 315.833,902.333 358.5,903C 360.133,903.48 361.466,904.313 362.5,905.5 Z"/></g>
<g><path style="opacity:1" fill="#2f2c2e" d="M 1325.5,982.5 C 1323.3,982.184 1320.97,982.684 1318.5,984C 1308.17,984.5 1297.84,984.666 1287.5,984.5C 1287.61,983.883 1287.94,983.383 1288.5,983C 1275.83,982.333 1263.17,982.333 1250.5,983C 1251.06,983.383 1251.39,983.883 1251.5,984.5C 1247.18,984.842 1245.18,982.842 1245.5,978.5C 1250.08,954.992 1255.08,931.659 1260.5,908.5C 1246.5,908.667 1232.5,908.5 1218.5,908C 1216.9,907.727 1215.4,907.227 1214,906.5C 1207.91,931.389 1202.58,956.389 1198,981.5C 1195.93,982.525 1193.76,983.358 1191.5,984C 1176.84,984.5 1162.17,984.667 1147.5,984.5C 1148.61,983.71 1149.94,983.21 1151.5,983C 1139.84,982.5 1128.17,982.333 1116.5,982.5C 1115.86,981.903 1115.53,981.07 1115.5,980C 1115.97,976.323 1116.64,972.823 1117.5,969.5C 1118.5,969.5 1119.5,969.5 1120.5,969.5C 1120.75,973.415 1120.09,977.081 1118.5,980.5C 1143.83,980.5 1169.17,980.5 1194.5,980.5C 1194.5,978.5 1194.5,976.5 1194.5,974.5C 1178.8,975.308 1163.14,975.141 1147.5,974C 1163.22,973.937 1178.89,973.104 1194.5,971.5C 1195.12,965.679 1195.12,959.513 1194.5,953C 1194.54,949.069 1195.21,945.402 1196.5,942C 1195.69,941.692 1195.03,941.192 1194.5,940.5C 1194.55,937.335 1194.72,934.002 1195,930.5C 1196.51,929.743 1197.85,928.743 1199,927.5C 1200.56,929.515 1202.39,929.848 1204.5,928.5C 1200.61,926.938 1200.77,925.605 1205,924.5C 1205.26,920.294 1205.76,916.127 1206.5,912C 1205.01,908.674 1205.18,905.507 1207,902.5C 1209.08,904.973 1211.25,904.973 1213.5,902.5C 1229.79,903.319 1246.12,903.819 1262.5,904C 1264.71,907.931 1267.71,911.097 1271.5,913.5C 1273.4,914.466 1275.4,914.799 1277.5,914.5C 1277.66,917.187 1277.5,919.854 1277,922.5C 1276.5,923.667 1275.67,924.5 1274.5,925C 1279.49,925.499 1284.49,925.666 1289.5,925.5C 1289.5,928.5 1289.5,931.5 1289.5,934.5C 1293.5,934.5 1297.5,934.5 1301.5,934.5C 1301.5,935.833 1301.5,937.167 1301.5,938.5C 1293.17,938.5 1284.83,938.5 1276.5,938.5C 1276.5,937.167 1276.5,935.833 1276.5,934.5C 1272.83,934.5 1269.17,934.5 1265.5,934.5C 1265.34,939.485 1265.34,944.318 1265.5,949C 1264.97,949.692 1264.31,950.192 1263.5,950.5C 1261.9,948.554 1260.56,946.388 1259.5,944C 1259.67,943.5 1259.83,943 1260,942.5C 1262.45,946.269 1262.95,945.769 1261.5,941C 1261.91,940.055 1262.57,939.388 1263.5,939C 1261.81,937.599 1261.14,935.766 1261.5,933.5C 1260.18,933.33 1259.01,933.663 1258,934.5C 1257.75,936.433 1257.25,938.266 1256.5,940C 1256.83,940.333 1257.17,940.667 1257.5,941C 1255.5,947.696 1253.84,954.529 1252.5,961.5C 1253.22,965.618 1253.55,969.618 1253.5,973.5C 1259.84,973.334 1266.18,973.5 1272.5,974C 1266.81,974.469 1261.14,975.136 1255.5,976C 1253.67,976.273 1252.17,977.107 1251,978.5C 1250.67,977.833 1250.33,977.167 1250,976.5C 1249.51,977.793 1249.34,979.127 1249.5,980.5C 1274.9,980.998 1300.23,981.664 1325.5,982.5 Z"/></g>
<g><path style="opacity:1" fill="#f9aa22" d="M 226.5,905.5 C 271.833,905.5 317.167,905.5 362.5,905.5C 368.588,911.584 369.088,918.251 364,925.5C 360.329,928.196 356.162,929.196 351.5,928.5C 311.003,927.501 270.337,927.168 229.5,927.5C 223.807,925.955 220.807,922.121 220.5,916C 220.401,911.142 222.401,907.642 226.5,905.5 Z"/></g>
<g><path style="opacity:1" fill="#faa93f" d="M 232.5,907.5 C 273.835,907.333 315.168,907.5 356.5,908C 362.303,912.424 362.97,917.59 358.5,923.5C 317.167,923.5 275.833,923.5 234.5,923.5C 234.313,921.436 233.813,919.436 233,917.5C 232.174,919.405 231.007,919.739 229.5,918.5C 232.086,915.386 233.086,911.719 232.5,907.5 Z"/></g>
<g><path style="opacity:1" fill="#f8a714" d="M 1026.5,799.5 C 1041.58,800.722 1056.58,801.722 1071.5,802.5C 1063.78,802.238 1056.11,802.738 1048.5,804C 1073.46,806.275 1098.46,807.608 1123.5,808C 1120.64,808.03 1118.31,807.197 1116.5,805.5C 1124.02,806.881 1131.69,807.881 1139.5,808.5C 1139.66,810.527 1139.5,812.527 1139,814.5C 1099.33,863.307 1060,912.307 1021,961.5C 1019.59,963.686 1017.75,965.352 1015.5,966.5C 1013.85,965.395 1012.18,965.229 1010.5,966C 1013.72,959.272 1018.22,953.439 1024,948.5C 1027.72,943.951 1031.22,939.284 1034.5,934.5C 1038.14,933.534 1039.81,931.201 1039.5,927.5C 1041.78,925.728 1043.94,923.728 1046,921.5C 1047.73,919.409 1048.89,917.076 1049.5,914.5C 1050.83,914.5 1052.17,914.5 1053.5,914.5C 1054.85,910.964 1055.85,907.298 1056.5,903.5C 1057.93,903.579 1059.26,903.246 1060.5,902.5C 1063.96,898.945 1066.96,894.945 1069.5,890.5C 1070.83,889.5 1072.17,888.5 1073.5,887.5C 1078.43,880.854 1083.26,874.187 1088,867.5C 1098.53,856.812 1107.7,845.145 1115.5,832.5C 1117.76,829.368 1119.93,826.035 1122,822.5C 1122.33,822.833 1122.67,823.167 1123,823.5C 1124.2,822.141 1125.7,821.141 1127.5,820.5C 1128.25,819.264 1128.58,817.93 1128.5,816.5C 1127.17,816.5 1125.83,816.5 1124.5,816.5C 1124.5,814.833 1124.5,813.167 1124.5,811.5C 1109.86,810.395 1095.2,809.728 1080.5,809.5C 1057.27,808.557 1037.94,807.057 1022.5,805C 1019.77,804.587 1017.1,803.92 1014.5,803C 1018.75,801.874 1023.08,801.208 1027.5,801C 1026.94,800.617 1026.61,800.117 1026.5,799.5 Z"/></g>
<g><path style="opacity:1" fill="#f7a310" d="M 199.5,902.5 C 209.276,905.983 212.442,912.65 209,922.5C 206.439,924.707 203.606,926.54 200.5,928C 190.093,928.926 179.759,928.592 169.5,927C 163.643,922.082 162.31,916.248 165.5,909.5C 165.369,910.376 165.702,911.043 166.5,911.5C 167.68,908.902 169.68,907.236 172.5,906.5C 181.816,905.668 191.149,905.168 200.5,905C 199.748,904.329 199.414,903.496 199.5,902.5 Z"/></g>
<g><path style="opacity:1" fill="#faa83c" d="M 175.5,907.5 C 183.507,907.334 191.507,907.5 199.5,908C 198.167,909.333 198.167,910.667 199.5,912C 201.134,912.494 202.801,912.66 204.5,912.5C 206.041,916.708 204.874,920.042 201,922.5C 200.586,922.043 200.086,921.709 199.5,921.5C 195.351,922.769 191.018,923.435 186.5,923.5C 181.306,923.488 176.306,922.655 171.5,921C 170.991,918.43 169.991,916.097 168.5,914C 169.448,913.517 170.448,913.351 171.5,913.5C 171.657,910.682 172.991,908.682 175.5,907.5 Z"/></g>
<g><path style="opacity:1" fill="#faaf4e" d="M 229.5,927.5 C 270.337,927.168 311.003,927.501 351.5,928.5C 310.714,929.455 270.048,929.122 229.5,927.5 Z"/></g>
<g><path style="opacity:1" fill="#2f2b30" d="M 833.5,962.5 C 828.129,973.056 819.462,979.556 807.5,982C 795.677,982.021 784.01,982.688 772.5,984C 751.503,984.5 730.503,984.667 709.5,984.5C 702.326,983.731 694.993,983.064 687.5,982.5C 676.834,983.746 666.168,983.746 655.5,982.5C 641.656,982.143 632.489,975.477 628,962.5C 627.501,956.843 627.334,951.176 627.5,945.5C 628.117,945.389 628.617,945.056 629,944.5C 629.333,949.167 629.667,953.833 630,958.5C 630.333,956.833 630.667,955.167 631,953.5C 631.333,957.167 631.667,960.833 632,964.5C 636.41,974.124 643.41,979.124 653,979.5C 701.704,980.211 750.038,980.878 798,981.5C 798.354,979.193 799.354,978.859 801,980.5C 802.651,979.258 804.485,978.424 806.5,978C 805.059,976.354 803.392,976.187 801.5,977.5C 797.856,975.191 793.856,974.024 789.5,974C 799.5,973.667 809.5,973.333 819.5,973C 823.379,970.41 826.712,967.244 829.5,963.5C 830.628,962.738 831.795,962.071 833,961.5C 833.399,961.728 833.565,962.062 833.5,962.5 Z"/></g>
<g><path style="opacity:1" fill="#373537" d="M 245.5,959.5 C 255.273,959.052 264.939,959.552 274.5,961C 283.702,971.594 281.702,979.261 268.5,984C 260.016,984.985 251.683,984.318 243.5,982C 238.312,978.115 236.479,972.948 238,966.5C 240.026,963.586 242.526,961.252 245.5,959.5 Z"/></g>
<g><path style="opacity:1" fill="#373638" d="M 299.5,959.5 C 315.503,959.333 331.503,959.5 347.5,960C 349.641,961.308 351.641,962.808 353.5,964.5C 353.98,966.949 354.98,969.115 356.5,971C 354.879,973.166 354.045,975.666 354,978.5C 349.119,981.952 343.619,983.785 337.5,984C 325.819,984.833 314.152,984.666 302.5,983.5C 295.645,982.475 291.979,978.475 291.5,971.5C 291.667,969.833 291.833,968.167 292,966.5C 294.015,963.588 296.515,961.255 299.5,959.5 Z"/></g>
<g><path style="opacity:1" fill="#232026" d="M 455.5,982.5 C 442.899,983.828 430.065,984.494 417,984.5C 407.416,984.009 397.916,984.009 388.5,984.5C 384.645,984.634 380.978,983.967 377.5,982.5C 377.351,981.448 377.517,980.448 378,979.5C 403.428,980.328 428.928,980.828 454.5,981C 455.056,981.383 455.389,981.883 455.5,982.5 Z"/></g>
<g><path style="opacity:1" fill="#231f25" d="M 587.5,980.5 C 587.62,983.205 586.62,983.872 584.5,982.5C 579.819,984.035 574.986,984.702 570,984.5C 562.753,984.459 555.587,983.792 548.5,982.5C 545.891,983.23 543.224,983.73 540.5,984C 530.786,984.241 521.119,984.407 511.5,984.5C 509.667,984.415 508.334,983.748 507.5,982.5C 519.815,981.168 532.482,980.501 545.5,980.5C 559.665,980.873 573.665,980.873 587.5,980.5 Z"/></g>
<g><path style="opacity:1" fill="#000000" d="M 655.5,982.5 C 666.168,983.746 676.834,983.746 687.5,982.5C 694.993,983.064 702.326,983.731 709.5,984.5C 692.83,984.667 676.163,984.5 659.5,984C 657.942,983.79 656.609,983.29 655.5,982.5 Z"/></g>
<g><path style="opacity:1" fill="#5a4c59" d="M 1116.5,982.5 C 1128.17,982.333 1139.84,982.5 1151.5,983C 1149.94,983.21 1148.61,983.71 1147.5,984.5C 1136.78,985.142 1126.45,984.475 1116.5,982.5 Z"/></g>
<g><path style="opacity:1" fill="#524458" d="M 1287.5,984.5 C 1275.5,984.5 1263.5,984.5 1251.5,984.5C 1251.39,983.883 1251.06,983.383 1250.5,983C 1263.17,982.333 1275.83,982.333 1288.5,983C 1287.94,983.383 1287.61,983.883 1287.5,984.5 Z"/></g>
<g><path style="opacity:1" fill="#faaa3e" d="M 962.5,794.5 C 960.951,798.307 959.951,802.307 959.5,806.5C 958.811,808.353 957.478,809.519 955.5,810C 957.439,815.763 955.439,819.43 949.5,821C 950.939,821.991 951.939,823.324 952.5,825C 955.432,825.953 958.432,826.453 961.5,826.5C 961.5,832.167 961.5,837.833 961.5,843.5C 962.5,843.5 963.5,843.5 964.5,843.5C 964.167,846.5 962.5,848.167 959.5,848.5C 959.5,847.5 959.5,846.5 959.5,845.5C 957.508,845.672 955.842,845.005 954.5,843.5C 953.509,847.445 953.176,851.445 953.5,855.5C 956.167,855.5 958.833,855.5 961.5,855.5C 961.5,856.5 961.5,857.5 961.5,858.5C 966.833,858.5 972.167,858.5 977.5,858.5C 977.5,861.5 977.5,864.5 977.5,867.5C 972.138,867.472 966.805,867.806 961.5,868.5C 961.5,872.167 961.5,875.833 961.5,879.5C 957.486,879.334 953.486,879.501 949.5,880C 952.817,880.498 956.15,880.665 959.5,880.5C 959.241,884.24 959.574,887.906 960.5,891.5C 959.624,892.251 958.624,892.751 957.5,893C 959.433,893.783 960.933,893.283 962,891.5C 962.71,892.973 963.876,893.64 965.5,893.5C 965.67,892.178 965.337,891.011 964.5,890C 966.592,887.208 968.592,884.375 970.5,881.5C 971.493,886.12 971.827,890.786 971.5,895.5C 968.059,895.301 964.726,895.801 961.5,897C 960.185,898.395 960.519,899.395 962.5,900C 969.707,901.44 976.374,900.274 982.5,896.5C 980.352,896.656 978.019,896.156 975.5,895C 976.849,894.228 977.682,893.061 978,891.5C 978.499,887.179 978.666,882.846 978.5,878.5C 974.833,878.5 971.167,878.5 967.5,878.5C 967.5,875.167 967.5,871.833 967.5,868.5C 971.833,868.5 976.167,868.5 980.5,868.5C 980.169,876.528 980.502,884.528 981.5,892.5C 982.086,892.709 982.586,893.043 983,893.5C 984.438,885.277 984.938,876.943 984.5,868.5C 991.833,868.5 999.167,868.5 1006.5,868.5C 1005.94,876.5 1006.61,884.333 1008.5,892C 1005.16,893.858 1003.82,896.691 1004.5,900.5C 1006.67,899.821 1008.67,898.821 1010.5,897.5C 1017.02,899.335 1023.68,900.001 1030.5,899.5C 1030.35,898.448 1030.52,897.448 1031,896.5C 1033.05,894.114 1035.38,892.114 1038,890.5C 1038.83,890.833 1039.67,891.167 1040.5,891.5C 1037.92,895.071 1035.26,898.571 1032.5,902C 1026.17,902.333 1019.83,902.667 1013.5,903C 1012.54,906.73 1012.21,910.563 1012.5,914.5C 1010.83,914.5 1009.17,914.5 1007.5,914.5C 1007.67,918.182 1007.5,921.848 1007,925.5C 1005,926.833 1003,926.833 1001,925.5C 1000.5,921.514 1000.33,917.514 1000.5,913.5C 1001.55,913.649 1002.55,913.483 1003.5,913C 1004.5,911.493 1005.84,910.327 1007.5,909.5C 1007.08,908.328 1006.41,907.328 1005.5,906.5C 1002.66,906.49 1000.16,905.157 998,902.5C 997.667,902.833 997.333,903.167 997,903.5C 997.093,907.826 997.093,912.159 997,916.5C 993.905,912.673 990.905,912.673 988,916.5C 987.209,919.959 986.209,923.293 985,926.5C 984.503,929.146 984.336,931.813 984.5,934.5C 986.833,934.5 989.167,934.5 991.5,934.5C 991.227,936.451 991.893,937.951 993.5,939C 990.7,943.438 989.367,943.272 989.5,938.5C 987.833,938.5 986.167,938.5 984.5,938.5C 984.739,940.467 984.406,942.301 983.5,944C 982.551,944.617 981.718,944.451 981,943.5C 980.64,941.579 979.806,939.912 978.5,938.5C 975.207,941.098 974.874,943.931 977.5,947C 979.445,946.872 981.278,947.038 983,947.5C 983.497,950.146 983.664,952.813 983.5,955.5C 982.5,955.5 981.5,955.5 980.5,955.5C 980.52,957.143 979.853,958.476 978.5,959.5C 980.657,962.367 983.324,963.034 986.5,961.5C 987.645,960.224 987.645,958.891 986.5,957.5C 987.651,956.269 988.817,956.269 990,957.5C 990.207,960.423 991.707,962.256 994.5,963C 990.673,964.471 988.673,967.304 988.5,971.5C 987.264,972.246 985.93,972.579 984.5,972.5C 984.5,971.167 984.5,969.833 984.5,968.5C 981.193,969.051 977.86,969.384 974.5,969.5C 974.338,971.527 974.505,973.527 975,975.5C 977.049,978.047 979.549,980.047 982.5,981.5C 983.935,980.176 984.935,978.51 985.5,976.5C 988.829,979.072 990.496,978.072 990.5,973.5C 993.86,972.79 995.693,974.124 996,977.5C 1000.3,975.076 1004.14,972.076 1007.5,968.5C 1006.01,972.837 1003.18,975.837 999,977.5C 998.667,977.167 998.333,976.833 998,976.5C 996.151,984.164 991.817,990.164 985,994.5C 983.629,998.576 981.796,1002.24 979.5,1005.5C 978.178,1005.33 977.011,1005.66 976,1006.5C 974.3,1010.47 971.8,1013.8 968.5,1016.5C 967.754,1017.74 967.421,1019.07 967.5,1020.5C 966.127,1020.34 964.793,1020.51 963.5,1021C 964.517,1022.05 964.684,1023.22 964,1024.5C 961.21,1027.15 958.377,1029.48 955.5,1031.5C 955.5,1032.5 955.5,1033.5 955.5,1034.5C 952.951,1034.44 950.951,1035.44 949.5,1037.5C 949.005,1040.47 947.505,1042.8 945,1044.5C 944.51,1045.79 944.343,1047.13 944.5,1048.5C 943.167,1048.5 941.833,1048.5 940.5,1048.5C 940.682,1050.59 940.348,1052.59 939.5,1054.5C 938.675,1055.39 937.675,1055.72 936.5,1055.5C 936.649,1056.55 936.483,1057.55 936,1058.5C 933.506,1061.59 930.839,1064.59 928,1067.5C 926.991,1069.02 926.491,1070.69 926.5,1072.5C 925.325,1072.28 924.325,1072.61 923.5,1073.5C 920.246,1079.59 915.746,1084.59 910,1088.5C 909.027,1090.39 908.36,1092.39 908,1094.5C 907.667,1094.17 907.333,1093.83 907,1093.5C 906.55,1096.11 905.05,1097.44 902.5,1097.5C 902.657,1098.87 902.49,1100.21 902,1101.5C 899.779,1102.93 898.279,1104.93 897.5,1107.5C 896.305,1109.3 894.638,1110.3 892.5,1110.5C 891.684,1113.67 890.351,1116.67 888.5,1119.5C 884.5,1117.17 884.5,1114.83 888.5,1112.5C 891.279,1106.8 893.446,1100.8 895,1094.5C 896,1093.83 897,1093.17 898,1092.5C 900.947,1086.42 903.447,1080.08 905.5,1073.5C 913.069,1062.1 919.236,1049.77 924,1036.5C 928.308,1031.6 930.974,1025.93 932,1019.5C 936.18,1014.37 939.346,1008.7 941.5,1002.5C 943.378,1001.36 945.212,1000.36 947,999.5C 947.292,997.674 947.125,995.841 946.5,994C 947.54,991.869 949.04,990.036 951,988.5C 951.697,984.072 953.363,980.072 956,976.5C 956.494,974.866 956.66,973.199 956.5,971.5C 957.5,971.5 958.5,971.5 959.5,971.5C 959.443,969.116 959.777,966.782 960.5,964.5C 964.763,958.31 968.263,951.643 971,944.5C 971.925,943.953 972.758,943.287 973.5,942.5C 974.967,936.872 977.134,931.538 980,926.5C 981.395,925.185 982.395,925.519 983,927.5C 982.837,920.155 985.337,913.988 990.5,909C 989.289,907.422 987.955,907.255 986.5,908.5C 982.409,915.383 978.576,922.383 975,929.5C 974.497,933.883 972.664,937.55 969.5,940.5C 968.702,940.043 968.369,939.376 968.5,938.5C 972.453,927.927 977.453,917.927 983.5,908.5C 983.328,906.508 983.995,904.842 985.5,903.5C 954.664,902.935 923.831,902.601 893,902.5C 888.5,902.167 884,901.833 879.5,901.5C 879.069,900.707 878.735,899.873 878.5,899C 880.112,896.384 882.112,894.05 884.5,892C 884.167,891.667 883.833,891.333 883.5,891C 885.432,890.862 887.266,891.362 889,892.5C 889.624,890.536 889.124,888.869 887.5,887.5C 889.789,884.709 892.289,882.042 895,879.5C 899.726,870.733 905.726,863.067 913,856.5C 919.492,848.006 925.992,839.506 932.5,831C 935.612,830.546 937.278,828.713 937.5,825.5C 941.968,820.576 945.968,815.243 949.5,809.5C 950.5,808.833 951.5,808.167 952.5,807.5C 952.698,804.215 954.365,802.548 957.5,802.5C 957.238,801.022 957.571,799.689 958.5,798.5C 959.409,796.625 960.743,795.292 962.5,794.5 Z"/></g>
<g><path style="opacity:1" fill="#f6a60d" d="M 1007.5,968.5 C 1010.01,966.821 1012.01,967.155 1013.5,969.5C 965.987,1029.38 918.32,1089.38 870.5,1149.5C 869.566,1148.43 869.232,1147.1 869.5,1145.5C 867.833,1145.5 866.167,1145.5 864.5,1145.5C 899.962,1076.91 934.629,1007.91 968.5,938.5C 968.369,939.376 968.702,940.043 969.5,940.5C 972.664,937.55 974.497,933.883 975,929.5C 978.576,922.383 982.409,915.383 986.5,908.5C 987.955,907.255 989.289,907.422 990.5,909C 985.337,913.988 982.837,920.155 983,927.5C 982.395,925.519 981.395,925.185 980,926.5C 977.134,931.538 974.967,936.872 973.5,942.5C 972.758,943.287 971.925,943.953 971,944.5C 968.263,951.643 964.763,958.31 960.5,964.5C 959.777,966.782 959.443,969.116 959.5,971.5C 958.5,971.5 957.5,971.5 956.5,971.5C 956.66,973.199 956.494,974.866 956,976.5C 953.363,980.072 951.697,984.072 951,988.5C 949.04,990.036 947.54,991.869 946.5,994C 947.125,995.841 947.292,997.674 947,999.5C 945.212,1000.36 943.378,1001.36 941.5,1002.5C 939.346,1008.7 936.18,1014.37 932,1019.5C 930.974,1025.93 928.308,1031.6 924,1036.5C 919.236,1049.77 913.069,1062.1 905.5,1073.5C 903.447,1080.08 900.947,1086.42 898,1092.5C 897,1093.17 896,1093.83 895,1094.5C 893.446,1100.8 891.279,1106.8 888.5,1112.5C 884.5,1114.83 884.5,1117.17 888.5,1119.5C 890.351,1116.67 891.684,1113.67 892.5,1110.5C 894.638,1110.3 896.305,1109.3 897.5,1107.5C 898.279,1104.93 899.779,1102.93 902,1101.5C 902.49,1100.21 902.657,1098.87 902.5,1097.5C 905.05,1097.44 906.55,1096.11 907,1093.5C 907.333,1093.83 907.667,1094.17 908,1094.5C 908.36,1092.39 909.027,1090.39 910,1088.5C 915.746,1084.59 920.246,1079.59 923.5,1073.5C 924.325,1072.61 925.325,1072.28 926.5,1072.5C 926.491,1070.69 926.991,1069.02 928,1067.5C 930.839,1064.59 933.506,1061.59 936,1058.5C 936.483,1057.55 936.649,1056.55 936.5,1055.5C 937.675,1055.72 938.675,1055.39 939.5,1054.5C 940.348,1052.59 940.682,1050.59 940.5,1048.5C 941.833,1048.5 943.167,1048.5 944.5,1048.5C 944.343,1047.13 944.51,1045.79 945,1044.5C 947.505,1042.8 949.005,1040.47 949.5,1037.5C 950.951,1035.44 952.951,1034.44 955.5,1034.5C 955.5,1033.5 955.5,1032.5 955.5,1031.5C 958.377,1029.48 961.21,1027.15 964,1024.5C 964.684,1023.22 964.517,1022.05 963.5,1021C 964.793,1020.51 966.127,1020.34 967.5,1020.5C 967.421,1019.07 967.754,1017.74 968.5,1016.5C 971.8,1013.8 974.3,1010.47 976,1006.5C 977.011,1005.66 978.178,1005.33 979.5,1005.5C 981.796,1002.24 983.629,998.576 985,994.5C 991.817,990.164 996.151,984.164 998,976.5C 998.333,976.833 998.667,977.167 999,977.5C 1003.18,975.837 1006.01,972.837 1007.5,968.5 Z"/></g>
<g><path style="opacity:1" fill="#c3a84e" d="M 864.5,1145.5 C 866.167,1145.5 867.833,1145.5 869.5,1145.5C 869.232,1147.1 869.566,1148.43 870.5,1149.5C 863.493,1156.51 861.493,1155.18 864.5,1145.5 Z"/></g>
</svg>
