<?xml version="1.0" encoding="UTF-8"?>
<!DOCTYPE svg PUBLIC "-//W3C//DTD SVG 1.1//EN" "http://www.w3.org/Graphics/SVG/1.1/DTD/svg11.dtd">
<svg xmlns="http://www.w3.org/2000/svg" version="1.1" width="1500px" height="1500px" style="shape-rendering:geometricPrecision; text-rendering:geometricPrecision; image-rendering:optimizeQuality; fill-rule:evenodd; clip-rule:evenodd" xmlns:xlink="http://www.w3.org/1999/xlink">
<g><path style="opacity:1" fill="#896f2b" d="M 1128.5,469.5 C 1128.65,468.448 1128.48,467.448 1128,466.5C 1125.62,470.047 1122.78,473.047 1119.5,475.5C 1122.39,469.993 1126.39,465.66 1131.5,462.5C 1131.83,465.491 1130.83,467.824 1128.5,469.5 Z"/></g>
<g><path style="opacity:1" fill="#d49d22" d="M 1128.5,469.5 C 1123.71,479.071 1118.88,488.738 1114,498.5C 1113.29,499.381 1112.46,500.047 1111.5,500.5C 1112.87,496.093 1114.53,491.76 1116.5,487.5C 1116,487.167 1115.5,486.833 1115,486.5C 1111.92,487.006 1109.42,488.339 1107.5,490.5C 1110.78,484.944 1114.78,479.944 1119.5,475.5C 1122.78,473.047 1125.62,470.047 1128,466.5C 1128.48,467.448 1128.65,468.448 1128.5,469.5 Z"/></g>
<g><path style="opacity:1" fill="#cd9117" d="M 1111.5,500.5 C 1105.96,513.237 1099.63,525.57 1092.5,537.5C 1092.58,536.07 1092.25,534.736 1091.5,533.5C 1091.85,532.304 1092.35,532.304 1093,533.5C 1093.67,531.5 1094.33,529.5 1095,527.5C 1095.67,528.833 1096.33,528.833 1097,527.5C 1098.25,524.986 1098.75,522.32 1098.5,519.5C 1099.68,519.719 1100.68,519.386 1101.5,518.5C 1103.3,511.556 1106.63,505.556 1111.5,500.5 Z"/></g>
<g><path style="opacity:1" fill="#f5b606" d="M 1111.5,500.5 C 1106.63,505.556 1103.3,511.556 1101.5,518.5C 1100.68,519.386 1099.68,519.719 1098.5,519.5C 1098.75,522.32 1098.25,524.986 1097,527.5C 1096.33,528.833 1095.67,528.833 1095,527.5C 1094.33,529.5 1093.67,531.5 1093,533.5C 1092.35,532.304 1091.85,532.304 1091.5,533.5C 1092.25,534.736 1092.58,536.07 1092.5,537.5C 1084,554.493 1075,571.16 1065.5,587.5C 1062.76,590.187 1059.43,592.187 1055.5,593.5C 1054.22,596.034 1053.89,598.534 1054.5,601C 1051.57,605.386 1049.74,610.219 1049,615.5C 1048.67,615.167 1048.33,614.833 1048,614.5C 1047.27,616.899 1046.1,619.065 1044.5,621C 1041.76,622.07 1039.26,623.57 1037,625.5C 1036.67,625.167 1036.33,624.833 1036,624.5C 1035.31,627.526 1034.14,630.359 1032.5,633C 1035.21,638.389 1034.71,643.556 1031,648.5C 1029.34,645.88 1026.67,643.547 1023,641.5C 1022.05,641.905 1021.39,642.572 1021,643.5C 1019.47,641.779 1018.47,639.779 1018,637.5C 1016.98,638.634 1016.32,638.301 1016,636.5C 1015.27,638.158 1014.11,638.658 1012.5,638C 1012.06,636.482 1012.72,635.315 1014.5,634.5C 1013.91,633.201 1012.91,632.368 1011.5,632C 1011.83,631.667 1012.17,631.333 1012.5,631C 1010.62,627.434 1009.29,623.934 1008.5,620.5C 1009.31,616.557 1011.14,613.224 1014,610.5C 1014.32,612.569 1015.16,612.902 1016.5,611.5C 1017.6,609.111 1019.27,607.277 1021.5,606C 1020.57,605.612 1019.91,604.945 1019.5,604C 1021.79,601.544 1023.45,598.71 1024.5,595.5C 1026.69,594.141 1028.36,592.308 1029.5,590C 1033.59,591.464 1036.26,589.964 1037.5,585.5C 1038.32,584.614 1039.32,584.281 1040.5,584.5C 1042.87,578.687 1044.87,572.687 1046.5,566.5C 1066.11,540.559 1086.44,515.226 1107.5,490.5C 1109.42,488.339 1111.92,487.006 1115,486.5C 1115.5,486.833 1116,487.167 1116.5,487.5C 1114.53,491.76 1112.87,496.093 1111.5,500.5 Z"/></g>
<g><path style="opacity:1" fill="#f9fa00" d="M 1055.5,606.5 C 1056.83,607.167 1056.83,607.167 1055.5,606.5 Z"/></g>
<g><path style="opacity:1" fill="#8d8686" d="M 396.5,621.5 C 364.693,620.855 333.027,620.188 301.5,619.5C 328.797,618.589 356.297,618.256 384,618.5C 388.556,618.439 392.722,619.439 396.5,621.5 Z"/></g>
<g><path style="opacity:1" fill="#f8f8f7" d="M 584.5,841.5 C 585.368,847.844 586.368,854.177 587.5,860.5C 587.489,862.045 587.156,863.378 586.5,864.5C 560.339,863.502 534.005,863.169 507.5,863.5C 506.9,858.666 506.234,853.833 505.5,849C 505.431,847.014 504.765,845.514 503.5,844.5C 504.069,840.671 503.402,837.337 501.5,834.5C 499.175,819.549 497.175,804.549 495.5,789.5C 488.137,789.169 480.803,789.503 473.5,790.5C 468.219,815.122 462.552,839.622 456.5,864C 443.258,865.15 429.924,865.65 416.5,865.5C 402.803,865.474 389.136,865.14 375.5,864.5C 380.648,838.795 385.982,813.128 391.5,787.5C 401.179,740.119 411.179,692.453 421.5,644.5C 422.735,642.983 422.735,641.316 421.5,639.5C 423.737,633.047 425.737,626.547 427.5,620C 487.833,619.333 548.167,619.333 608.5,620C 619.615,621.782 627.115,627.949 631,638.5C 631.667,645.833 631.667,653.167 631,660.5C 625.928,685.601 620.428,710.601 614.5,735.5C 615.429,738.151 615.429,740.485 614.5,742.5C 612.027,749.054 609.861,755.721 608,762.5C 601.88,775.788 591.713,784.122 577.5,787.5C 576.203,790.188 576.536,792.688 578.5,795C 578.043,795.414 577.709,795.914 577.5,796.5C 579.555,811.813 581.888,826.813 584.5,841.5 Z M 549.5,654.5 C 542.343,688.466 535.177,722.466 528,756.5C 511.911,757.491 495.744,757.825 479.5,757.5C 479.995,753.006 481.328,748.84 483.5,745C 483.043,744.586 482.709,744.086 482.5,743.5C 488.92,714.083 495.253,684.416 501.5,654.5C 509.434,653.198 517.601,652.531 526,652.5C 534.196,652.502 542.03,653.169 549.5,654.5 Z"/></g>
<g><path style="opacity:1" fill="#f8f7f6" d="M 722.5,832.5 C 722.369,833.239 722.536,833.906 723,834.5C 727.646,834.933 732.146,834.266 736.5,832.5C 743.948,833.108 751.115,832.441 758,830.5C 760.792,816.582 763.959,802.748 767.5,789C 767.167,788 766.833,787 766.5,786C 770.051,774.484 773.051,762.818 775.5,751C 775.355,749.774 775.022,748.607 774.5,747.5C 776.64,741.61 778.473,735.61 780,729.5C 786.876,692.996 794.543,656.663 803,620.5C 830.093,619.505 857.259,619.172 884.5,619.5C 884.665,622.518 884.498,625.518 884,628.5C 877.008,659.468 870.175,690.468 863.5,721.5C 856.44,758.278 848.607,795.278 840,832.5C 833.147,851.021 819.98,861.854 800.5,865C 751.5,865.667 702.5,865.667 653.5,865C 640.525,863.688 632.025,856.855 628,844.5C 627.333,838.5 627.333,832.5 628,826.5C 633.492,802.535 638.659,778.535 643.5,754.5C 645.094,745.881 647.094,737.215 649.5,728.5C 647.97,726.202 648.304,724.369 650.5,723C 652.551,710.594 655.217,698.094 658.5,685.5C 658.32,684.446 657.987,683.446 657.5,682.5C 662.522,662.225 667.355,641.892 672,621.5C 672.5,621 673,620.5 673.5,620C 700.165,619.5 726.831,619.333 753.5,619.5C 750.442,640.403 746.109,661.07 740.5,681.5C 740.68,682.554 741.013,683.554 741.5,684.5C 740.285,688.979 738.785,693.312 737,697.5C 735.868,706.853 734.035,716.02 731.5,725C 725.442,757.434 718.442,789.934 710.5,822.5C 710.852,825.797 710.852,828.963 710.5,832C 714.486,832.499 718.486,832.666 722.5,832.5 Z"/></g>
<g><path style="opacity:1" fill="#edb10c" d="M 1046.5,566.5 C 1044.87,572.687 1042.87,578.687 1040.5,584.5C 1039.32,584.281 1038.32,584.614 1037.5,585.5C 1036.26,589.964 1033.59,591.464 1029.5,590C 1028.36,592.308 1026.69,594.141 1024.5,595.5C 1023.45,598.71 1021.79,601.544 1019.5,604C 1019.91,604.945 1020.57,605.612 1021.5,606C 1019.27,607.277 1017.6,609.111 1016.5,611.5C 1015.16,612.902 1014.32,612.569 1014,610.5C 1011.14,613.224 1009.31,616.557 1008.5,620.5C 1009.29,623.934 1010.62,627.434 1012.5,631C 1012.17,631.333 1011.83,631.667 1011.5,632C 1012.91,632.368 1013.91,633.201 1014.5,634.5C 1012.72,635.315 1012.06,636.482 1012.5,638C 1014.11,638.658 1015.27,638.158 1016,636.5C 1016.32,638.301 1016.98,638.634 1018,637.5C 1018.47,639.779 1019.47,641.779 1021,643.5C 1021.39,642.572 1022.05,641.905 1023,641.5C 1026.67,643.547 1029.34,645.88 1031,648.5C 1034.71,643.556 1035.21,638.389 1032.5,633C 1034.14,630.359 1035.31,627.526 1036,624.5C 1036.33,624.833 1036.67,625.167 1037,625.5C 1039.26,623.57 1041.76,622.07 1044.5,621C 1046.1,619.065 1047.27,616.899 1048,614.5C 1048.33,614.833 1048.67,615.167 1049,615.5C 1049.74,610.219 1051.57,605.386 1054.5,601C 1053.89,598.534 1054.22,596.034 1055.5,593.5C 1059.43,592.187 1062.76,590.187 1065.5,587.5C 1062.43,593.964 1059.1,600.298 1055.5,606.5C 1054.17,606.833 1054.17,607.167 1055.5,607.5C 1044.67,627.828 1033.34,647.828 1021.5,667.5C 1020.81,666.226 1019.98,666.226 1019,667.5C 1018.02,664.253 1016.52,661.253 1014.5,658.5C 1012.23,657.637 1009.9,657.637 1007.5,658.5C 1007.65,657.448 1007.48,656.448 1007,655.5C 1005.7,655.966 1004.2,655.966 1002.5,655.5C 1001.98,652.972 1000.98,650.639 999.5,648.5C 1001.13,646.613 1000.8,645.113 998.5,644C 996.231,643.242 994.064,643.409 992,644.5C 989.861,643.375 988.694,642.042 988.5,640.5C 986.364,641.472 985.197,643.139 985,645.5C 983.044,647.548 980.877,649.214 978.5,650.5C 1000.23,621.689 1022.9,593.689 1046.5,566.5 Z"/></g>
<g><path style="opacity:1" fill="#f8f8f7" d="M 1239.5,662.5 C 1236.43,675.836 1233.43,689.502 1230.5,703.5C 1227.13,711.586 1225.13,720.252 1224.5,729.5C 1223.67,738.324 1222,746.991 1219.5,755.5C 1235.82,756.499 1252.15,756.833 1268.5,756.5C 1269.29,748.823 1270.96,741.323 1273.5,734C 1272.97,729.721 1273.64,725.554 1275.5,721.5C 1277.02,713.607 1279.02,704.773 1281.5,695C 1280.03,692.907 1280.36,691.241 1282.5,690C 1287.02,667.722 1291.52,645.222 1296,622.5C 1296.42,620.574 1297.59,619.574 1299.5,619.5C 1324.99,620.498 1350.66,620.831 1376.5,620.5C 1376.26,624.842 1375.93,629.176 1375.5,633.5C 1373.95,643.47 1372.29,652.803 1370.5,661.5C 1366.41,677.018 1362.74,693.685 1359.5,711.5C 1357.87,714.558 1356.7,717.891 1356,721.5C 1355,720.167 1354,720.167 1353,721.5C 1351.94,719.604 1351.1,719.437 1350.5,721C 1350.9,722.897 1351.9,724.397 1353.5,725.5C 1353.02,726.478 1352.36,727.311 1351.5,728C 1352.17,728.333 1352.83,728.667 1353.5,729C 1352.83,734.931 1352.16,741.098 1351.5,747.5C 1346.03,776.114 1340.03,804.614 1333.5,833C 1333.74,833.873 1334.07,834.707 1334.5,835.5C 1331.87,844.359 1329.7,853.359 1328,862.5C 1327.61,863.428 1326.95,864.095 1326,864.5C 1299.62,865.826 1273.29,865.826 1247,864.5C 1246.63,862.302 1246.13,860.135 1245.5,858C 1248.04,851.358 1250.04,844.525 1251.5,837.5C 1251.32,836.446 1250.99,835.446 1250.5,834.5C 1251.41,832.362 1252.41,830.195 1253.5,828C 1253.17,827.667 1252.83,827.333 1252.5,827C 1253.86,825.055 1254.7,822.888 1255,820.5C 1257,810.187 1258.83,799.854 1260.5,789.5C 1244.59,789.825 1228.76,789.491 1213,788.5C 1209.38,803.793 1205.88,819.46 1202.5,835.5C 1202.68,836.554 1203.01,837.554 1203.5,838.5C 1202.1,841.035 1201.1,843.702 1200.5,846.5C 1198.84,848.438 1198.17,850.772 1198.5,853.5C 1198.54,856.91 1198.04,860.243 1197,863.5C 1196.25,864.126 1195.42,864.626 1194.5,865C 1168.83,865.667 1143.17,865.667 1117.5,865C 1116.83,864.333 1116.17,863.667 1115.5,863C 1116.74,856.181 1118.08,849.348 1119.5,842.5C 1128.94,796.937 1138.61,750.937 1148.5,704.5C 1148.39,703.558 1148.06,702.725 1147.5,702C 1148.76,701.583 1149.42,700.75 1149.5,699.5C 1154.2,677.026 1159.2,654.026 1164.5,630.5C 1164.39,629.558 1164.06,628.725 1163.5,628C 1164.83,625.333 1166.17,622.667 1167.5,620C 1174.5,619.566 1181.5,619.066 1188.5,618.5C 1208.15,619.424 1227.82,619.758 1247.5,619.5C 1246.87,622.734 1246.87,625.901 1247.5,629C 1243.77,639.911 1241.11,651.077 1239.5,662.5 Z"/></g>
<g><path style="opacity:1" fill="#b3acab" d="M 1375.5,633.5 C 1375.93,629.176 1376.26,624.842 1376.5,620.5C 1350.66,620.831 1324.99,620.498 1299.5,619.5C 1315.31,619.44 1331.15,619.106 1347,618.5C 1357.16,619.186 1367.32,619.686 1377.5,620C 1378.06,620.725 1378.39,621.558 1378.5,622.5C 1378.02,626.436 1377.02,630.103 1375.5,633.5 Z"/></g>
<g><path style="opacity:1" fill="#d5bdb7" d="M 278.5,633.5 C 277.754,630.861 276.754,628.194 275.5,625.5C 274.675,624.614 273.675,624.281 272.5,624.5C 272.646,622.058 271.813,621.391 270,622.5C 269.692,621.692 269.192,621.025 268.5,620.5C 256.513,621.578 244.513,621.745 232.5,621C 229.194,621.692 226.36,623.192 224,625.5C 223.371,629.871 223.537,634.204 224.5,638.5C 221.236,634.286 220.736,629.62 223,624.5C 226.803,620.171 231.636,618.338 237.5,619C 248.883,618.117 260.217,618.45 271.5,620C 277.131,622.761 279.464,627.261 278.5,633.5 Z"/></g>
<g><path style="opacity:1" fill="#f0efed" d="M 301.5,619.5 C 333.027,620.188 364.693,620.855 396.5,621.5C 399.39,622.899 400.89,625.232 401,628.5C 402.169,636.67 398.669,641.503 390.5,643C 360.833,643.667 331.167,643.667 301.5,643C 292.596,639.689 289.762,633.522 293,624.5C 294.972,623.695 296.472,622.361 297.5,620.5C 298.736,619.754 300.07,619.421 301.5,619.5 Z"/></g>
<g><path style="opacity:1" fill="#f1f0ed" d="M 278.5,633.5 C 276.96,638.54 273.626,641.707 268.5,643C 256.167,643.667 243.833,643.667 231.5,643C 228.743,642.062 226.41,640.562 224.5,638.5C 223.537,634.204 223.371,629.871 224,625.5C 226.36,623.192 229.194,621.692 232.5,621C 244.513,621.745 256.513,621.578 268.5,620.5C 269.192,621.025 269.692,621.692 270,622.5C 271.813,621.391 272.646,622.058 272.5,624.5C 273.675,624.281 274.675,624.614 275.5,625.5C 276.754,628.194 277.754,630.861 278.5,633.5 Z"/></g>
<g><path style="opacity:1" fill="#f9faf9" d="M 421.5,644.5 C 420.475,644.103 420.308,643.437 421,642.5C 421.464,643.094 421.631,643.761 421.5,644.5 Z"/></g>
<g><path style="opacity:1" fill="#f8b802" d="M 1021.5,667.5 C 1019.85,672.308 1017.51,676.808 1014.5,681C 1028.75,683.159 1043.09,684.326 1057.5,684.5C 1068.28,686.779 1079.28,688.612 1090.5,690C 1104.51,691.263 1118.51,691.43 1132.5,690.5C 1134.5,690.5 1136.5,690.5 1138.5,690.5C 1138.63,692.655 1138.13,694.655 1137,696.5C 1129.62,705.04 1122.45,713.707 1115.5,722.5C 1114.07,722.421 1112.74,722.754 1111.5,723.5C 1110.2,725.758 1109.2,728.092 1108.5,730.5C 1105.27,730.552 1102.94,732.052 1101.5,735C 1101.64,735.772 1101.98,736.439 1102.5,737C 1098.3,740.361 1094.3,743.027 1090.5,745C 1090.83,745.333 1091.17,745.667 1091.5,746C 1087.5,749.149 1085.83,753.316 1086.5,758.5C 1073.24,775.767 1059.57,792.767 1045.5,809.5C 1044.83,808.733 1043.99,808.066 1043,807.5C 1042.19,809.436 1041.69,811.436 1041.5,813.5C 1037.81,813.631 1035.81,815.631 1035.5,819.5C 1033.08,820.712 1032.08,822.712 1032.5,825.5C 1018.74,843.357 1004.74,861.024 990.5,878.5C 987.552,880.22 984.385,881.554 981,882.5C 979.969,880.579 978.469,880.579 976.5,882.5C 977.002,883.716 977.335,884.883 977.5,886C 975.428,887.273 974.095,889.107 973.5,891.5C 971.577,892.308 969.577,892.808 967.5,893C 967.018,894.008 966.852,895.175 967,896.5C 962.494,897.979 961.661,900.479 964.5,904C 962.606,905.079 962.273,906.413 963.5,908C 961.212,908.822 958.878,909.489 956.5,910C 955.874,910.75 955.374,911.584 955,912.5C 954.086,911.346 953.253,911.513 952.5,913C 953.711,914.113 953.711,915.28 952.5,916.5C 951.122,918.213 949.455,919.547 947.5,920.5C 946.679,923.447 946.179,926.447 946,929.5C 943.939,932.128 941.439,932.795 938.5,931.5C 935.53,932.637 933.364,934.637 932,937.5C 930.795,936.929 929.628,936.262 928.5,935.5C 929.597,933.465 931.263,932.132 933.5,931.5C 932.902,930.205 932.402,928.872 932,927.5C 931.086,928.654 930.253,928.487 929.5,927C 930.854,924.29 930.354,921.79 928,919.5C 927.639,916.475 927.139,913.475 926.5,910.5C 928.601,906.029 931.101,901.696 934,897.5C 934.495,895.527 934.662,893.527 934.5,891.5C 936.133,887.571 938.133,883.904 940.5,880.5C 942.352,879.911 944.185,879.244 946,878.5C 946.627,872.614 948.627,867.281 952,862.5C 952.492,863.549 952.326,864.549 951.5,865.5C 952.274,866.711 953.107,866.711 954,865.5C 954.333,866.167 954.667,866.833 955,867.5C 954.963,863.841 956.129,860.674 958.5,858C 957.572,857.612 956.905,856.945 956.5,856C 959.684,846.131 963.851,836.631 969,827.5C 969.44,825.134 969.94,822.801 970.5,820.5C 974.592,810.312 979.259,800.312 984.5,790.5C 945.852,788.851 907.185,788.184 868.5,788.5C 868.351,787.448 868.517,786.448 869,785.5C 905.326,740.342 941.826,695.342 978.5,650.5C 980.877,649.214 983.044,647.548 985,645.5C 985.197,643.139 986.364,641.472 988.5,640.5C 988.694,642.042 989.861,643.375 992,644.5C 994.064,643.409 996.231,643.242 998.5,644C 1000.8,645.113 1001.13,646.613 999.5,648.5C 1000.98,650.639 1001.98,652.972 1002.5,655.5C 1004.2,655.966 1005.7,655.966 1007,655.5C 1007.48,656.448 1007.65,657.448 1007.5,658.5C 1009.9,657.637 1012.23,657.637 1014.5,658.5C 1016.52,661.253 1018.02,664.253 1019,667.5C 1019.98,666.226 1020.81,666.226 1021.5,667.5 Z"/></g>
<g><path style="opacity:1" fill="#cebcb4" d="M 549.5,654.5 C 542.03,653.169 534.196,652.502 526,652.5C 517.601,652.531 509.434,653.198 501.5,654.5C 501.5,653.5 501.5,652.5 501.5,651.5C 518.17,651.333 534.837,651.5 551.5,652C 550.934,652.995 550.267,653.828 549.5,654.5 Z"/></g>
<g><path style="opacity:1" fill="#f9faf9" d="M 1370.5,661.5 C 1371.83,662.167 1371.83,662.167 1370.5,661.5 Z"/></g>
<g><path style="opacity:1" fill="#f9faf9" d="M 1239.5,662.5 C 1240.83,663.167 1240.83,663.167 1239.5,662.5 Z"/></g>
<g><path style="opacity:1" fill="#f9b600" d="M 981.5,672.5 C 983.485,672.859 984.151,673.692 983.5,675C 985.455,678.108 987.288,677.941 989,674.5C 991,677.167 993,677.167 995,674.5C 997.567,675.27 1000.07,676.27 1002.5,677.5C 1004.13,676.081 1004.63,676.414 1004,678.5C 1003.33,679.833 1002.67,679.833 1002,678.5C 998.59,682.009 998.756,682.675 1002.5,680.5C 1003.36,682.197 1004.7,683.363 1006.5,684C 1001.28,686.084 1001.28,686.584 1006.5,685.5C 1007.17,686.5 1007.83,687.5 1008.5,688.5C 1009.61,687.41 1010.61,687.41 1011.5,688.5C 1010.99,690.225 1010.32,691.892 1009.5,693.5C 1007.22,692.798 1004.89,692.965 1002.5,694C 1003.54,695.617 1004.7,695.784 1006,694.5C 1006.99,695.939 1008.32,696.939 1010,697.5C 1012.06,696.331 1014.56,695.831 1017.5,696C 1017.17,696.333 1016.83,696.667 1016.5,697C 1017.5,697.333 1018.5,697.667 1019.5,698C 1018.17,699 1018.17,700 1019.5,701C 1017.39,701.906 1016.55,703.406 1017,705.5C 1017.33,704.833 1017.67,704.167 1018,703.5C 1019.01,705.025 1019.51,706.692 1019.5,708.5C 1017.39,708.679 1015.73,709.679 1014.5,711.5C 1015.64,712.425 1015.64,713.259 1014.5,714C 1013.58,714.374 1012.75,714.874 1012,715.5C 1012.33,714.167 1012.67,712.833 1013,711.5C 1011.33,713.843 1009.33,715.843 1007,717.5C 1005.32,715.706 1003.49,715.206 1001.5,716C 1000.83,714.667 999.833,713.667 998.5,713C 999.5,712.667 1000.5,712.333 1001.5,712C 999.566,710.647 997.733,709.147 996,707.5C 995.667,707.833 995.333,708.167 995,708.5C 994.804,706.714 993.971,705.381 992.5,704.5C 992.891,705.718 992.224,706.552 990.5,707C 992.477,709.428 994.81,711.428 997.5,713C 995.961,715.04 995.127,717.206 995,719.5C 994.125,717.487 992.791,717.487 991,719.5C 990.259,718.359 989.425,718.359 988.5,719.5C 987.808,718.975 987.308,718.308 987,717.5C 983.606,718.456 980.106,718.789 976.5,718.5C 976.343,719.873 976.51,721.207 977,722.5C 978.619,723.083 980.452,723.083 982.5,722.5C 983.192,723.025 983.692,723.692 984,724.5C 984.689,723.643 985.522,722.977 986.5,722.5C 988.887,722.912 990.887,723.912 992.5,725.5C 990.833,726.5 989.5,727.833 988.5,729.5C 987.284,728.998 986.117,728.665 985,728.5C 983.902,729.967 982.402,730.801 980.5,731C 979.949,732.398 979.616,733.732 979.5,735C 978.256,735.456 977.423,734.956 977,733.5C 976.215,735.286 975.049,736.786 973.5,738C 974.833,739 976.167,740 977.5,741C 975.273,742.835 973.44,742.335 972,739.5C 971.097,740.701 969.931,741.535 968.5,742C 970.992,743.249 970.825,744.416 968,745.5C 967.517,746.448 967.351,747.448 967.5,748.5C 965.453,748.489 963.453,748.156 961.5,747.5C 959.603,747.728 958.27,748.728 957.5,750.5C 956.05,749.345 955.05,747.845 954.5,746C 953.552,745.517 952.552,745.351 951.5,745.5C 951.587,742.402 951.087,742.068 950,744.5C 949.667,743.5 949.333,742.5 949,741.5C 948.664,743.074 947.831,744.408 946.5,745.5C 948.167,746.167 949.833,746.833 951.5,747.5C 950.833,747.833 950.167,748.167 949.5,748.5C 950.546,751.428 952.212,753.928 954.5,756C 952.607,758.303 950.607,760.47 948.5,762.5C 946.826,761.12 945.16,759.787 943.5,758.5C 940.481,759.996 939.815,759.163 941.5,756C 940.528,753.889 939.695,751.722 939,749.5C 938.092,747.561 936.592,746.561 934.5,746.5C 934.441,749.049 935.441,751.049 937.5,752.5C 935.027,754.242 935.027,756.075 937.5,758C 934.303,758.239 931.636,757.072 929.5,754.5C 930.025,753.808 930.692,753.308 931.5,753C 929.697,752.363 928.364,751.197 927.5,749.5C 928.025,748.808 928.692,748.308 929.5,748C 927.257,748.319 925.09,748.152 923,747.5C 922.692,748.308 922.192,748.975 921.5,749.5C 920.304,749.154 920.304,748.654 921.5,748C 920.128,747.598 918.795,747.098 917.5,746.5C 916.472,748.361 914.972,749.695 913,750.5C 913.804,748.612 914.804,746.612 916,744.5C 917.011,745.337 918.178,745.67 919.5,745.5C 919.809,742.654 921.475,741.154 924.5,741C 923.72,739.927 923.887,738.76 925,737.5C 925.777,739.701 926.944,739.701 928.5,737.5C 927.833,737.167 927.167,736.833 926.5,736.5C 928.197,735.636 929.363,734.303 930,732.5C 930.196,734.286 931.029,735.619 932.5,736.5C 933.242,734.892 933.409,733.225 933,731.5C 934.101,733.394 935.434,734.061 937,733.5C 937.333,732.5 937.667,731.5 938,730.5C 942.232,736.634 947.232,737.967 953,734.5C 953.316,735.634 954.149,736.634 955.5,737.5C 957.592,737.413 959.592,736.913 961.5,736C 960.449,733.758 959.449,731.591 958.5,729.5C 957.833,730.5 957.167,731.5 956.5,732.5C 955.094,731.332 953.928,731.665 953,733.5C 952,732.833 951,732.167 950,731.5C 945.883,734.613 942.383,734.113 939.5,730C 940.308,729.692 940.975,729.192 941.5,728.5C 940.5,726.833 939.167,725.5 937.5,724.5C 937.524,726.284 937.024,728.284 936,730.5C 934.992,730.018 933.825,729.852 932.5,730C 933.5,729 934.5,728 935.5,727C 934.833,726.667 934.167,726.333 933.5,726C 934.833,724.667 936.167,723.333 937.5,722C 939.367,721.289 940.867,721.789 942,723.5C 944.037,717.374 946.537,717.374 949.5,723.5C 950.308,723.192 950.975,722.692 951.5,722C 950.816,720.307 949.816,718.807 948.5,717.5C 947.349,716.269 946.183,716.269 945,717.5C 944.751,716.376 944.251,715.376 943.5,714.5C 943.331,715.397 942.998,716.397 942.5,717.5C 940.667,716.948 939,716.115 937.5,715C 940.877,713.961 941.543,712.461 939.5,710.5C 940.727,709.41 941.56,708.076 942,706.5C 943.133,708.211 944.633,708.711 946.5,708C 946.876,706.16 948.043,704.327 950,702.5C 950.333,702.833 950.667,703.167 951,703.5C 951.49,702.207 951.657,700.873 951.5,699.5C 954.336,699.798 954.836,699.131 953,697.5C 950.936,698.591 948.769,698.758 946.5,698C 949.943,697.779 950.276,696.779 947.5,695C 948.618,693.926 949.618,692.76 950.5,691.5C 951.967,691.723 953.467,692.056 955,692.5C 954.981,694.107 954.815,695.774 954.5,697.5C 955.822,697.33 956.989,697.663 958,698.5C 958.324,696.431 959.158,696.098 960.5,697.5C 964.641,694.901 964.474,694.235 960,695.5C 959.1,694.23 957.934,693.23 956.5,692.5C 958.918,689.566 960.751,686.232 962,682.5C 962.7,684.032 963.866,685.032 965.5,685.5C 965.88,683.979 966.046,682.313 966,680.5C 966.414,680.957 966.914,681.291 967.5,681.5C 967.94,680.302 968.273,679.135 968.5,678C 969.76,676.887 970.927,676.72 972,677.5C 973.185,674.731 975.018,673.731 977.5,674.5C 979.026,674.006 980.359,673.339 981.5,672.5 Z"/></g>
<g><path style="opacity:1" fill="#c49217" d="M 166.5,675.5 C 154.007,676.331 141.34,676.831 128.5,677C 126.422,678.077 124.422,679.243 122.5,680.5C 123.85,676.975 126.516,675.142 130.5,675C 142.526,674.251 154.526,674.418 166.5,675.5 Z"/></g>
<g><path style="opacity:1" fill="#b2841b" d="M 387.5,680.5 C 385.467,680.051 383.8,679.051 382.5,677.5C 320.503,676.333 258.503,676.167 196.5,677C 193.944,678.055 192.277,679.888 191.5,682.5C 190.062,686.575 190.395,690.575 192.5,694.5C 188.829,691.751 187.663,688.084 189,683.5C 190.85,677.984 194.683,675.15 200.5,675C 256.895,675.733 313.395,675.567 370,674.5C 374.545,674.603 379.045,675.103 383.5,676C 385.635,676.876 386.969,678.376 387.5,680.5 Z"/></g>
<g><path style="opacity:1" fill="#f7b607" d="M 166.5,675.5 C 172.227,677.089 175.227,680.922 175.5,687C 174.549,693.453 170.882,696.953 164.5,697.5C 152.184,696.82 139.851,695.987 127.5,695C 123.007,691.263 121.341,686.43 122.5,680.5C 124.422,679.243 126.422,678.077 128.5,677C 141.34,676.831 154.007,676.331 166.5,675.5 Z"/></g>
<g><path style="opacity:1" fill="#f8b703" d="M 387.5,680.5 C 390.019,684.792 390.019,689.125 387.5,693.5C 385.407,692.027 383.74,692.527 382.5,695C 320.5,695.667 258.5,695.667 196.5,695C 192.226,691.943 190.56,687.777 191.5,682.5C 192.277,679.888 193.944,678.055 196.5,677C 258.503,676.167 320.503,676.333 382.5,677.5C 383.8,679.051 385.467,680.051 387.5,680.5 Z"/></g>
<g><path style="opacity:1" fill="#855919" d="M 120.5,682.5 C 121.477,685.287 121.81,688.287 121.5,691.5C 119.238,688.819 118.904,685.819 120.5,682.5 Z"/></g>
<g><path style="opacity:1" fill="#d09822" d="M 1057.5,684.5 C 1082.67,686.154 1107.67,688.154 1132.5,690.5C 1118.51,691.43 1104.51,691.263 1090.5,690C 1079.28,688.612 1068.28,686.779 1057.5,684.5 Z"/></g>
<g><path style="opacity:1" fill="#f9faf9" d="M 738.5,694.5 C 739.833,695.167 739.833,695.167 738.5,694.5 Z"/></g>
<g><path style="opacity:1" fill="#e0aa28" d="M 191.5,682.5 C 190.56,687.777 192.226,691.943 196.5,695C 258.5,695.667 320.5,695.667 382.5,695C 383.74,692.527 385.407,692.027 387.5,693.5C 385.88,695.984 383.547,697.484 380.5,698C 319.833,698.667 259.167,698.667 198.5,698C 195.736,697.994 193.736,696.828 192.5,694.5C 190.395,690.575 190.062,686.575 191.5,682.5 Z"/></g>
<g><path style="opacity:1" fill="#d9a530" d="M 122.5,680.5 C 121.341,686.43 123.007,691.263 127.5,695C 139.851,695.987 152.184,696.82 164.5,697.5C 153.007,698.659 141.341,698.826 129.5,698C 125.434,697.424 122.767,695.257 121.5,691.5C 121.81,688.287 121.477,685.287 120.5,682.5C 120.833,681.5 121.5,680.833 122.5,680.5 Z"/></g>
<g><path style="opacity:1" fill="#f9faf9" d="M 1149.5,699.5 C 1148.83,698.167 1148.83,698.167 1149.5,699.5 Z"/></g>
<g><path style="opacity:1" fill="#f9faf9" d="M 864.5,718.5 C 865.525,718.897 865.692,719.563 865,720.5C 864.536,719.906 864.369,719.239 864.5,718.5 Z"/></g>
<g><path style="opacity:1" fill="#f9faf9" d="M 1275.5,721.5 C 1274.47,721.103 1274.31,720.437 1275,719.5C 1275.46,720.094 1275.63,720.761 1275.5,721.5 Z"/></g>
<g><path style="opacity:1" fill="#f9faf9" d="M 863.5,721.5 C 864.525,721.897 864.692,722.563 864,723.5C 863.536,722.906 863.369,722.239 863.5,721.5 Z"/></g>
<g><path style="opacity:1" fill="#cfc8c8" d="M 1359.5,711.5 C 1357.1,723.68 1354.44,735.68 1351.5,747.5C 1352.16,741.098 1352.83,734.931 1353.5,729C 1352.83,728.667 1352.17,728.333 1351.5,728C 1352.36,727.311 1353.02,726.478 1353.5,725.5C 1351.9,724.397 1350.9,722.897 1350.5,721C 1351.1,719.437 1351.94,719.604 1353,721.5C 1354,720.167 1355,720.167 1356,721.5C 1356.7,717.891 1357.87,714.558 1359.5,711.5 Z"/></g>
<g><path style="opacity:1" fill="#bda8a8" d="M 1230.5,703.5 C 1229.37,712.482 1227.37,721.148 1224.5,729.5C 1225.13,720.252 1227.13,711.586 1230.5,703.5 Z"/></g>
<g><path style="opacity:1" fill="#f7f6f5" d="M 319.5,729.5 C 335.138,730.815 350.805,730.815 366.5,729.5C 382.301,736.2 383.301,744.534 369.5,754.5C 352.304,753.172 335.137,753.172 318,754.5C 315.356,752.69 312.856,750.69 310.5,748.5C 308.914,743.626 309.247,738.959 311.5,734.5C 314.011,732.457 316.678,730.791 319.5,729.5 Z"/></g>
<g><path style="opacity:1" fill="#f7f6f6" d="M 252.5,748.5 C 251.274,744.178 251.274,739.845 252.5,735.5C 253.823,733.314 255.823,731.814 258.5,731C 268.167,730.333 277.833,730.333 287.5,731C 296.739,734.172 299.239,740.005 295,748.5C 292.961,750.874 290.628,752.874 288,754.5C 278.197,753.176 268.363,753.176 258.5,754.5C 256.146,752.812 254.146,750.812 252.5,748.5 Z"/></g>
<g><path style="opacity:1" fill="#8a7b7a" d="M 252.5,735.5 C 251.274,739.845 251.274,744.178 252.5,748.5C 248.5,744.167 248.5,739.833 252.5,735.5 Z"/></g>
<g><path style="opacity:1" fill="#e1a312" d="M 1115.5,722.5 C 1105.82,734.539 1096.16,746.539 1086.5,758.5C 1085.83,753.316 1087.5,749.149 1091.5,746C 1091.17,745.667 1090.83,745.333 1090.5,745C 1094.3,743.027 1098.3,740.361 1102.5,737C 1101.98,736.439 1101.64,735.772 1101.5,735C 1102.94,732.052 1105.27,730.552 1108.5,730.5C 1109.2,728.092 1110.2,725.758 1111.5,723.5C 1112.74,722.754 1114.07,722.421 1115.5,722.5 Z"/></g>
<g><path style="opacity:1" fill="#f9faf9" d="M 773.5,751.5 C 774.833,752.167 774.833,752.167 773.5,751.5 Z"/></g>
<g><path style="opacity:1" fill="#f9faf9" d="M 643.5,754.5 C 642.475,754.103 642.308,753.437 643,752.5C 643.464,753.094 643.631,753.761 643.5,754.5 Z"/></g>
<g><path style="opacity:1" fill="#f9faf9" d="M 261.5,755.5 C 269.323,754.344 277.323,754.177 285.5,755C 277.507,755.5 269.507,755.666 261.5,755.5 Z"/></g>
<g><path style="opacity:1" fill="#f9faf9" d="M 320.5,755.5 C 335.661,754.339 350.994,754.172 366.5,755C 351.17,755.5 335.837,755.667 320.5,755.5 Z"/></g>
<g><path style="opacity:1" fill="#f9faf9" d="M 391.5,787.5 C 390.427,786.749 390.26,785.749 391,784.5C 391.483,785.448 391.649,786.448 391.5,787.5 Z"/></g>
<g><path style="opacity:1" fill="#f2bf3f" d="M 355.5,785.5 C 313.513,787.495 271.18,788.161 228.5,787.5C 228.918,786.778 229.584,786.278 230.5,786C 272.165,785.5 313.832,785.333 355.5,785.5 Z"/></g>
<g><path style="opacity:1" fill="#f8b704" d="M 355.5,785.5 C 359.029,786.849 362.195,788.849 365,791.5C 365.667,795.5 365.667,799.5 365,803.5C 363.138,806.208 360.638,807.874 357.5,808.5C 315.166,808.16 272.832,807.66 230.5,807C 223.891,801.281 222.891,794.781 227.5,787.5C 227.833,787.5 228.167,787.5 228.5,787.5C 271.18,788.161 313.513,787.495 355.5,785.5 Z"/></g>
<g><path style="opacity:1" fill="#ff5c00" d="M 870.5,790.5 C 880.992,789.341 891.659,789.175 902.5,790C 891.839,790.5 881.172,790.667 870.5,790.5 Z"/></g>
<g><path style="opacity:1" fill="#f90000" d="M 903.5,790.5 C 903.897,789.475 904.563,789.308 905.5,790C 904.906,790.464 904.239,790.631 903.5,790.5 Z"/></g>
<g><path style="opacity:1" fill="#f90000" d="M 906.5,789.5 C 907.833,790.167 907.833,790.167 906.5,789.5 Z"/></g>
<g><path style="opacity:1" fill="#f9faf9" d="M 1126.5,801.5 C 1127.83,802.167 1127.83,802.167 1126.5,801.5 Z"/></g>
<g><path style="opacity:1" fill="#dfa927" d="M 195.5,809.5 C 189.474,808.556 183.474,808.556 177.5,809.5C 165.916,808.651 162.082,802.651 166,791.5C 168.063,788.547 170.896,786.714 174.5,786C 182.833,785.333 191.167,785.333 199.5,786C 208.345,788.85 211.179,794.684 208,803.5C 205.041,808.063 200.874,810.063 195.5,809.5 Z"/></g>
<g><path style="opacity:1" fill="#f8b702" d="M 172.5,788.5 C 182.172,788.334 191.839,788.5 201.5,789C 206.155,791.897 207.655,796.063 206,801.5C 203.739,802.682 201.905,804.349 200.5,806.5C 191.195,807.725 182.195,807.725 173.5,806.5C 168.292,803.734 166.458,799.401 168,793.5C 169.707,791.963 171.207,790.296 172.5,788.5 Z"/></g>
<g><path style="opacity:1" fill="#c5871a" d="M 227.5,787.5 C 222.891,794.781 223.891,801.281 230.5,807C 272.832,807.66 315.166,808.16 357.5,808.5C 354.359,809.321 351.025,809.821 347.5,810C 332.17,810.5 316.837,810.667 301.5,810.5C 300.391,809.71 299.058,809.21 297.5,809C 274.836,808.5 252.169,808.333 229.5,808.5C 226.944,807.457 224.777,805.79 223,803.5C 222.333,799.5 222.333,795.5 223,791.5C 224.371,789.959 225.871,788.625 227.5,787.5 Z"/></g>
<g><path style="opacity:1" fill="#854303" d="M 195.5,809.5 C 189.5,810.833 183.5,810.833 177.5,809.5C 183.474,808.556 189.474,808.556 195.5,809.5 Z"/></g>
<g><path style="opacity:1" fill="#975e03" d="M 229.5,808.5 C 252.169,808.333 274.836,808.5 297.5,809C 299.058,809.21 300.391,809.71 301.5,810.5C 279.164,810.667 256.831,810.5 234.5,810C 232.618,809.802 230.952,809.302 229.5,808.5 Z"/></g>
<g><path style="opacity:1" fill="#d39c17" d="M 1045.5,809.5 C 1041.89,815.438 1037.56,820.771 1032.5,825.5C 1032.08,822.712 1033.08,820.712 1035.5,819.5C 1035.81,815.631 1037.81,813.631 1041.5,813.5C 1041.69,811.436 1042.19,809.436 1043,807.5C 1043.99,808.066 1044.83,808.733 1045.5,809.5 Z"/></g>
<g><path style="opacity:1" fill="#a45643" d="M 722.5,832.5 C 727.167,832.5 731.833,832.5 736.5,832.5C 732.146,834.266 727.646,834.933 723,834.5C 722.536,833.906 722.369,833.239 722.5,832.5 Z"/></g>
<g><path style="opacity:1" fill="#988787" d="M 501.5,834.5 C 503.402,837.337 504.069,840.671 503.5,844.5C 502.419,841.373 501.753,838.04 501.5,834.5 Z"/></g>
<g><path style="opacity:1" fill="#f9faf9" d="M 584.5,841.5 C 584.369,840.761 584.536,840.094 585,839.5C 585.692,840.437 585.525,841.103 584.5,841.5 Z"/></g>
<g><path style="opacity:1" fill="#f9faf9" d="M 1119.5,842.5 C 1118.83,841.167 1118.83,841.167 1119.5,842.5 Z"/></g>
<g><path style="opacity:1" fill="#eeeceb" d="M 244.5,841.5 C 253.839,841.334 263.173,841.5 272.5,842C 278.544,845.449 280.71,850.615 279,857.5C 277.28,861.783 274.113,864.283 269.5,865C 261.833,865.667 254.167,865.667 246.5,865C 237.254,860.996 235.087,854.496 240,845.5C 241.397,843.93 242.897,842.596 244.5,841.5 Z"/></g>
<g><path style="opacity:1" fill="#f1eeec" d="M 298.5,841.5 C 314.837,841.333 331.17,841.5 347.5,842C 354.252,846.844 355.752,853.01 352,860.5C 350.048,862.894 347.548,864.394 344.5,865C 329.833,865.667 315.167,865.667 300.5,865C 291.817,861.456 289.317,855.289 293,846.5C 294.73,844.598 296.563,842.931 298.5,841.5 Z"/></g>
<g><path style="opacity:1" fill="#f9faf9" d="M 1117.5,844.5 C 1118.83,845.167 1118.83,845.167 1117.5,844.5 Z"/></g>
<g><path style="opacity:1" fill="#756363" d="M 1200.5,846.5 C 1200.28,849.067 1199.61,851.401 1198.5,853.5C 1198.17,850.772 1198.84,848.438 1200.5,846.5 Z"/></g>
<g><path style="opacity:1" fill="#e8b018" d="M 970.5,820.5 C 969.94,822.801 969.44,825.134 969,827.5C 963.851,836.631 959.684,846.131 956.5,856C 956.905,856.945 957.572,857.612 958.5,858C 956.129,860.674 954.963,863.841 955,867.5C 954.667,866.833 954.333,866.167 954,865.5C 953.107,866.711 952.274,866.711 951.5,865.5C 952.326,864.549 952.492,863.549 952,862.5C 948.627,867.281 946.627,872.614 946,878.5C 944.185,879.244 942.352,879.911 940.5,880.5C 949.63,859.583 959.63,839.583 970.5,820.5 Z"/></g>
<g><path style="opacity:1" fill="#f9faf9" d="M 1244.5,860.5 C 1245.57,861.251 1245.74,862.251 1245,863.5C 1244.52,862.552 1244.35,861.552 1244.5,860.5 Z"/></g>
<g><path style="opacity:1" fill="#b4a4a5" d="M 503.5,844.5 C 504.765,845.514 505.431,847.014 505.5,849C 506.234,853.833 506.9,858.666 507.5,863.5C 534.005,863.169 560.339,863.502 586.5,864.5C 560.572,865.657 534.572,865.823 508.5,865C 507.333,864.5 506.5,863.667 506,862.5C 504.969,856.517 504.136,850.517 503.5,844.5 Z"/></g>
<g><path style="opacity:1" fill="#ecb00e" d="M 990.5,878.5 C 966.26,910.41 941.26,941.743 915.5,972.5C 915.586,971.504 915.252,970.671 914.5,970C 915.448,969.517 916.448,969.351 917.5,969.5C 917.739,967.533 917.406,965.699 916.5,964C 917.449,963.383 918.282,963.549 919,964.5C 921.826,963.083 921.993,961.583 919.5,960C 920.061,958.324 921.061,956.991 922.5,956C 921.056,954.237 920.056,952.237 919.5,950C 916.827,948.999 914.493,947.499 912.5,945.5C 911.201,946.09 910.368,947.09 910,948.5C 909.667,947.833 909.333,947.167 909,946.5C 904.537,956.717 899.704,966.55 894.5,976C 896.442,978.606 897.942,981.44 899,984.5C 899.414,984.043 899.914,983.709 900.5,983.5C 901.182,984.243 901.849,984.909 902.5,985.5C 899.946,987.951 897.613,990.618 895.5,993.5C 893.269,991.89 891.269,990.057 889.5,988C 891.417,984.413 892.417,980.58 892.5,976.5C 905.573,948.018 919.573,919.684 934.5,891.5C 934.662,893.527 934.495,895.527 934,897.5C 931.101,901.696 928.601,906.029 926.5,910.5C 927.139,913.475 927.639,916.475 928,919.5C 930.354,921.79 930.854,924.29 929.5,927C 930.253,928.487 931.086,928.654 932,927.5C 932.402,928.872 932.902,930.205 933.5,931.5C 931.263,932.132 929.597,933.465 928.5,935.5C 929.628,936.262 930.795,936.929 932,937.5C 933.364,934.637 935.53,932.637 938.5,931.5C 941.439,932.795 943.939,932.128 946,929.5C 946.179,926.447 946.679,923.447 947.5,920.5C 949.455,919.547 951.122,918.213 952.5,916.5C 953.711,915.28 953.711,914.113 952.5,913C 953.253,911.513 954.086,911.346 955,912.5C 955.374,911.584 955.874,910.75 956.5,910C 958.878,909.489 961.212,908.822 963.5,908C 962.273,906.413 962.606,905.079 964.5,904C 961.661,900.479 962.494,897.979 967,896.5C 966.852,895.175 967.018,894.008 967.5,893C 969.577,892.808 971.577,892.308 973.5,891.5C 974.095,889.107 975.428,887.273 977.5,886C 977.335,884.883 977.002,883.716 976.5,882.5C 978.469,880.579 979.969,880.579 981,882.5C 984.385,881.554 987.552,880.22 990.5,878.5 Z"/></g>
<g><path style="opacity:1" fill="#f9bb05" d="M 915.5,972.5 C 910.336,971.502 908.169,973.835 909,979.5C 908.586,979.043 908.086,978.709 907.5,978.5C 906.066,980.22 905.233,982.22 905,984.5C 904.586,984.043 904.086,983.709 903.5,983.5C 903.213,984.2 902.88,984.867 902.5,985.5C 901.849,984.909 901.182,984.243 900.5,983.5C 899.914,983.709 899.414,984.043 899,984.5C 897.942,981.44 896.442,978.606 894.5,976C 899.704,966.55 904.537,956.717 909,946.5C 909.333,947.167 909.667,947.833 910,948.5C 910.368,947.09 911.201,946.09 912.5,945.5C 914.493,947.499 916.827,948.999 919.5,950C 920.056,952.237 921.056,954.237 922.5,956C 921.061,956.991 920.061,958.324 919.5,960C 921.993,961.583 921.826,963.083 919,964.5C 918.282,963.549 917.449,963.383 916.5,964C 917.406,965.699 917.739,967.533 917.5,969.5C 916.448,969.351 915.448,969.517 914.5,970C 915.252,970.671 915.586,971.504 915.5,972.5 Z"/></g>
<g><path style="opacity:1" fill="#dfa316" d="M 915.5,972.5 C 903.808,986.862 892.475,1001.53 881.5,1016.5C 879.564,1017.26 877.731,1018.26 876,1019.5C 874.699,1018.9 873.865,1017.9 873.5,1016.5C 874.9,1013.96 875.9,1011.3 876.5,1008.5C 880.808,997.217 886.142,986.55 892.5,976.5C 892.417,980.58 891.417,984.413 889.5,988C 891.269,990.057 893.269,991.89 895.5,993.5C 897.613,990.618 899.946,987.951 902.5,985.5C 902.88,984.867 903.213,984.2 903.5,983.5C 904.086,983.709 904.586,984.043 905,984.5C 905.233,982.22 906.066,980.22 907.5,978.5C 908.086,978.709 908.586,979.043 909,979.5C 908.169,973.835 910.336,971.502 915.5,972.5 Z"/></g>
<g><path style="opacity:1" fill="#c8952b" d="M 876.5,1008.5 C 875.9,1011.3 874.9,1013.96 873.5,1016.5C 873.865,1017.9 874.699,1018.9 876,1019.5C 877.731,1018.26 879.564,1017.26 881.5,1016.5C 875.831,1023.18 870.164,1029.84 864.5,1036.5C 863.359,1034.58 863.192,1032.58 864,1030.5C 868.063,1022.98 872.23,1015.65 876.5,1008.5 Z"/></g>
</svg>
