<?xml version="1.0" encoding="UTF-8"?>
<svg version="1.1" xmlns="http://www.w3.org/2000/svg" width="97" height="192">
<path d="M0 0 C0.66 0 1.32 0 2 0 C0.42695133 5.32789611 -1.92946374 10.04627494 -4.47265625 14.95703125 C-4.91459824 15.81826096 -5.35654022 16.67949066 -5.81187439 17.56681824 C-7.2247787 20.31744184 -8.643661 23.06493386 -10.0625 25.8125 C-10.98929954 27.61634782 -11.91573508 29.4203827 -12.84179688 31.22460938 C-20.00243111 45.15373318 -20.00243111 45.15373318 -23.69091797 52.04443359 C-24.11167099 52.83130051 -24.53242401 53.61816742 -24.96592712 54.42887878 C-25.75886393 55.90730981 -26.55552421 57.38375176 -27.35646057 58.85786438 C-29.32866942 62.23707308 -29.32866942 62.23707308 -30 66 C-28.79875488 66.08040527 -27.59750977 66.16081055 -26.35986328 66.24365234 C-21.91257759 66.543769 -17.46620943 66.8559715 -13.02001953 67.171875 C-11.09381685 67.30702432 -9.16737974 67.43887377 -7.24072266 67.56738281 C-4.47490575 67.7524349 -1.710143 67.94925292 1.0546875 68.1484375 C1.9193161 68.20373627 2.7839447 68.25903503 3.67477417 68.31600952 C9.77225659 68.77225659 9.77225659 68.77225659 12 71 C11.50628906 71.60328125 11.01257813 72.2065625 10.50390625 72.828125 C9.86324219 73.62734375 9.22257812 74.4265625 8.5625 75.25 C7.92441406 76.03890625 7.28632812 76.8278125 6.62890625 77.640625 C4.89114136 79.8379418 4.89114136 79.8379418 4.52734375 82.171875 C4.26630859 83.07679687 4.26630859 83.07679687 4 84 C3.43410156 84.27199219 2.86820312 84.54398437 2.28515625 84.82421875 C-1.25649487 86.6465042 -3.18328773 89.68195754 -5.5625 92.8125 C-6.04396484 93.42931641 -6.52542969 94.04613281 -7.02148438 94.68164062 C-10.26705416 98.88257758 -13.30547798 102.91643395 -15 108 C-15.56589844 108.25136719 -16.13179688 108.50273438 -16.71484375 108.76171875 C-20.22084772 110.66155338 -22.17742528 113.67424379 -24.5625 116.8125 C-25.04396484 117.42931641 -25.52542969 118.04613281 -26.02148438 118.68164062 C-29.26705416 122.88257758 -32.30547798 126.91643395 -34 132 C-34.56589844 132.25136719 -35.13179687 132.50273437 -35.71484375 132.76171875 C-39.22084772 134.66155338 -41.17742528 137.67424379 -43.5625 140.8125 C-44.28469727 141.73772461 -44.28469727 141.73772461 -45.02148438 142.68164062 C-48.26705416 146.88257758 -51.30547798 150.91643395 -53 156 C-53.84884766 156.37705078 -53.84884766 156.37705078 -54.71484375 156.76171875 C-58.22084772 158.66155338 -60.17742528 161.67424379 -62.5625 164.8125 C-63.28469727 165.73772461 -63.28469727 165.73772461 -64.02148438 166.68164062 C-67.26705416 170.88257758 -70.30547798 174.91643395 -72 180 C-72.61746094 180.29777344 -73.23492187 180.59554687 -73.87109375 180.90234375 C-76.61449757 182.31683269 -77.48288007 183.93822476 -79.0625 186.5625 C-81.67356475 190.89118825 -81.67356475 190.89118825 -85 192 C-84.38967793 186.8580688 -82.01882807 182.67643738 -79.6953125 178.1328125 C-79.26000717 177.26918091 -78.82470184 176.40554932 -78.37620544 175.51574707 C-77.44558443 173.67060672 -76.51233226 171.82679148 -75.57669067 169.98419189 C-73.15489401 165.21431804 -70.75201537 160.43493074 -68.34765625 155.65625 C-67.87740524 154.7227774 -67.40715424 153.78930481 -66.9226532 152.82754517 C-62.52607066 144.0877349 -58.28856444 135.27932908 -54.109375 126.43359375 C-51.81299654 121.57499482 -49.3985588 116.78313458 -46.92578125 112.01171875 C-45.8606496 110.06627826 -45.8606496 110.06627826 -46 108 C-58.54 107.67 -71.08 107.34 -84 107 C-84.33 106.34 -84.66 105.68 -85 105 C-84.54109375 104.41992188 -84.0821875 103.83984375 -83.609375 103.2421875 C-77.34350864 95.6781946 -77.34350864 95.6781946 -73 87 C-72.1028125 86.5978125 -72.1028125 86.5978125 -71.1875 86.1875 C-67.21782585 84.03253403 -65.38954774 80.16864321 -64 76 C-63.1028125 75.5978125 -63.1028125 75.5978125 -62.1875 75.1875 C-58.21782585 73.03253403 -56.38954774 69.16864321 -55 65 C-54.1028125 64.5978125 -54.1028125 64.5978125 -53.1875 64.1875 C-49.21782585 62.03253403 -47.38954774 58.16864321 -46 54 C-44.67639625 53.31421917 -43.34173057 52.64960087 -42 52 C-40.35261774 50.39059901 -40.35261774 50.39059901 -38.86328125 48.47265625 C-38.29053467 47.76834473 -37.71778809 47.0640332 -37.12768555 46.33837891 C-36.52867432 45.58733887 -35.92966309 44.83629883 -35.3125 44.0625 C-34.68964111 43.29341309 -34.06678223 42.52432617 -33.42504883 41.73193359 C-32.17931575 40.19319119 -30.93633873 38.65221297 -29.69628906 37.10888672 C-27.54400337 34.43308882 -25.36726131 31.77845503 -23.1875 29.125 C-22.48882812 28.2690625 -21.79015625 27.413125 -21.0703125 26.53125 C-19.65297883 24.79835902 -18.23086292 23.0693715 -16.8046875 21.34375 C-13.56494693 17.41542345 -10.3475543 13.48363705 -7.28125 9.41796875 C-6.82806396 8.81839355 -6.37487793 8.21881836 -5.90795898 7.60107422 C-5.02405376 6.42606248 -4.14576463 5.24680088 -3.27368164 4.06298828 C-2.22857774 2.67275705 -1.11946468 1.33108371 0 0 Z M-83 105 C-83 105.33 -83 105.66 -83 106 C-70.46 106 -57.92 106 -45 106 C-45 105.67 -45 105.34 -45 105 C-57.54 105 -70.08 105 -83 105 Z M-45 106 C-44 108 -44 108 -44 108 Z " fill="#FEBF00" transform="translate(85,0)"/>
<path d="M0 0 C4.95 0 9.9 0 15 0 C15 0.33 15 0.66 15 1 C10.05 1 5.1 1 0 1 C0 0.67 0 0.34 0 0 Z " fill="#FFC800" transform="translate(81,67)"/>
<path d="M0 0 C4.62 0 9.24 0 14 0 C14 0.33 14 0.66 14 1 C9.38 1 4.76 1 0 1 C0 0.67 0 0.34 0 0 Z " fill="#FFBB00" transform="translate(67,66)"/>
<path d="M0 0 C3.63 0.33 7.26 0.66 11 1 C11 1.33 11 1.66 11 2 C7.37 2 3.74 2 0 2 C0 1.34 0 0.68 0 0 Z " fill="#FFC200" transform="translate(55,64)"/>
<path d="M0 0 C0 3 0 3 0 3 Z " fill="#FF8F00" transform="translate(55,124)"/>
<path d="M0 0 C0 3 0 3 0 3 Z " fill="#FF8F00" transform="translate(74,100)"/>
<path d="M0 0 C0 3 0 3 0 3 Z " fill="#FF8F00" transform="translate(93,76)"/>
<path d="M0 0 C0 3 0 3 0 3 Z " fill="#FF8F00" transform="translate(48,43)"/>
<path d="M0 0 C0 3 0 3 0 3 Z " fill="#FF8F00" transform="translate(57,32)"/>
<path d="M0 0 C0 3 0 3 0 3 Z " fill="#FF8F00" transform="translate(66,21)"/>
<path d="M0 0 C0 3 0 3 0 3 Z " fill="#FF8F00" transform="translate(75,10)"/>
<path d="" fill="#FFFF00" transform="translate(0,0)"/>
<path d="" fill="#FFDF00" transform="translate(0,0)"/>
<path d="" fill="#FFDF00" transform="translate(0,0)"/>
<path d="" fill="#FFD400" transform="translate(0,0)"/>
<path d="" fill="#FFDF00" transform="translate(0,0)"/>
<path d="" fill="#FFDF00" transform="translate(0,0)"/>
<path d="" fill="#FFDF00" transform="translate(0,0)"/>
<path d="" fill="#FFDF00" transform="translate(0,0)"/>
<path d="" fill="#FF7F00" transform="translate(0,0)"/>
<path d="" fill="#FFDF00" transform="translate(0,0)"/>
<path d="" fill="#FFFF00" transform="translate(0,0)"/>
<path d="" fill="#FFD400" transform="translate(0,0)"/>
<path d="" fill="#FFFF00" transform="translate(0,0)"/>
<path d="" fill="#FF9400" transform="translate(0,0)"/>
<path d="" fill="#FF9400" transform="translate(0,0)"/>
<path d="" fill="#FFFF00" transform="translate(0,0)"/>
<path d="" fill="#FF9400" transform="translate(0,0)"/>
<path d="" fill="#FF9400" transform="translate(0,0)"/>
<path d="" fill="#FFFF00" transform="translate(0,0)"/>
<path d="" fill="#FFD400" transform="translate(0,0)"/>
<path d="" fill="#FFFF00" transform="translate(0,0)"/>
<path d="" fill="#FFBF00" transform="translate(0,0)"/>
<path d="" fill="#FFBF00" transform="translate(0,0)"/>
<path d="" fill="#FFD400" transform="translate(0,0)"/>
<path d="" fill="#FF7F00" transform="translate(0,0)"/>
<path d="" fill="#FFD400" transform="translate(0,0)"/>
<path d="" fill="#FFD400" transform="translate(0,0)"/>
<path d="" fill="#FFFF00" transform="translate(0,0)"/>
<path d="" fill="#FF5500" transform="translate(0,0)"/>
<path d="" fill="#FF5500" transform="translate(0,0)"/>
<path d="" fill="#FFFF00" transform="translate(0,0)"/>
<path d="" fill="#FF7F00" transform="translate(0,0)"/>
<path d="" fill="#FFDF00" transform="translate(0,0)"/>
<path d="" fill="#FFD400" transform="translate(0,0)"/>
<path d="" fill="#FFDF00" transform="translate(0,0)"/>
<path d="" fill="#FFDF00" transform="translate(0,0)"/>
<path d="" fill="#FFDF00" transform="translate(0,0)"/>
<path d="" fill="#FFDF00" transform="translate(0,0)"/>
<path d="" fill="#FFDF00" transform="translate(0,0)"/>
<path d="" fill="#FFDF00" transform="translate(0,0)"/>
<path d="" fill="#FFDF00" transform="translate(0,0)"/>
<path d="" fill="#FFFF00" transform="translate(0,0)"/>
<path d="" fill="#FFFF00" transform="translate(0,0)"/>
<path d="" fill="#FFFF00" transform="translate(0,0)"/>
<path d="" fill="#FF9400" transform="translate(0,0)"/>
<path d="" fill="#FFFF00" transform="translate(0,0)"/>
<path d="" fill="#FF9400" transform="translate(0,0)"/>
<path d="" fill="#FF9400" transform="translate(0,0)"/>
<path d="" fill="#FFD400" transform="translate(0,0)"/>
<path d="" fill="#FF9400" transform="translate(0,0)"/>
<path d="" fill="#FFBF00" transform="translate(0,0)"/>
<path d="" fill="#FFFF00" transform="translate(0,0)"/>
<path d="" fill="#FFFF00" transform="translate(0,0)"/>
<path d="" fill="#FFFF00" transform="translate(0,0)"/>
<path d="" fill="#FFFF00" transform="translate(0,0)"/>
<path d="" fill="#FFD400" transform="translate(0,0)"/>
<path d="" fill="#FFFF00" transform="translate(0,0)"/>
<path d="" fill="#FF7F00" transform="translate(0,0)"/>
<path d="" fill="#FFD400" transform="translate(0,0)"/>
<path d="" fill="#FF9400" transform="translate(0,0)"/>
<path d="" fill="#FFBF00" transform="translate(0,0)"/>
<path d="" fill="#FFD400" transform="translate(0,0)"/>
<path d="" fill="#FFBF00" transform="translate(0,0)"/>
<path d="" fill="#FFFF00" transform="translate(0,0)"/>
<path d="" fill="#FFD400" transform="translate(0,0)"/>
<path d="" fill="#FF5F00" transform="translate(0,0)"/>
<path d="" fill="#FFD400" transform="translate(0,0)"/>
<path d="" fill="#FF5F00" transform="translate(0,0)"/>
<path d="" fill="#FF5F00" transform="translate(0,0)"/>
<path d="" fill="#FFDF00" transform="translate(0,0)"/>
<path d="" fill="#FFDF00" transform="translate(0,0)"/>
<path d="" fill="#FFDF00" transform="translate(0,0)"/>
<path d="" fill="#FFD400" transform="translate(0,0)"/>
<path d="" fill="#FFFF00" transform="translate(0,0)"/>
<path d="" fill="#FFD400" transform="translate(0,0)"/>
<path d="" fill="#FF9400" transform="translate(0,0)"/>
<path d="" fill="#FF9400" transform="translate(0,0)"/>
<path d="" fill="#FFBF00" transform="translate(0,0)"/>
<path d="" fill="#FFBF00" transform="translate(0,0)"/>
<path d="" fill="#FFD400" transform="translate(0,0)"/>
<path d="" fill="#FFFF00" transform="translate(0,0)"/>
<path d="" fill="#FFD400" transform="translate(0,0)"/>
<path d="" fill="#FF5F00" transform="translate(0,0)"/>
<path d="" fill="#FF5F00" transform="translate(0,0)"/>
<path d="" fill="#FFD400" transform="translate(0,0)"/>
<path d="" fill="#FF5F00" transform="translate(0,0)"/>
<path d="" fill="#FFDF00" transform="translate(0,0)"/>
<path d="" fill="#FFDF00" transform="translate(0,0)"/>
<path d="" fill="#FFDF00" transform="translate(0,0)"/>
<path d="" fill="#FFFF00" transform="translate(0,0)"/>
<path d="" fill="#FFFF00" transform="translate(0,0)"/>
<path d="" fill="#FFFF00" transform="translate(0,0)"/>
<path d="" fill="#FF7F00" transform="translate(0,0)"/>
<path d="" fill="#FFFF00" transform="translate(0,0)"/>
<path d="" fill="#FFAA00" transform="translate(0,0)"/>
<path d="" fill="#FFFF00" transform="translate(0,0)"/>
<path d="" fill="#FFBF00" transform="translate(0,0)"/>
<path d="" fill="#FFFF00" transform="translate(0,0)"/>
<path d="" fill="#FFFF00" transform="translate(0,0)"/>
<path d="" fill="#FFFF00" transform="translate(0,0)"/>
<path d="" fill="#FFAA00" transform="translate(0,0)"/>
<path d="" fill="#FFFF00" transform="translate(0,0)"/>
<path d="" fill="#FFBF00" transform="translate(0,0)"/>
<path d="" fill="#FF7F00" transform="translate(0,0)"/>
<path d="" fill="#FFAA00" transform="translate(0,0)"/>
<path d="" fill="#FFAA00" transform="translate(0,0)"/>
<path d="" fill="#FFFF00" transform="translate(0,0)"/>
<path d="" fill="#FFAA00" transform="translate(0,0)"/>
<path d="" fill="#FFFF00" transform="translate(0,0)"/>
<path d="" fill="#FFBF00" transform="translate(0,0)"/>
<path d="" fill="#FFFF00" transform="translate(0,0)"/>
<path d="" fill="#FFFF00" transform="translate(0,0)"/>
<path d="" fill="#FFFF00" transform="translate(0,0)"/>
<path d="" fill="#FFAA00" transform="translate(0,0)"/>
<path d="" fill="#FFFF00" transform="translate(0,0)"/>
<path d="" fill="#FFBF00" transform="translate(0,0)"/>
<path d="" fill="#FF7F00" transform="translate(0,0)"/>
<path d="" fill="#FFAA00" transform="translate(0,0)"/>
<path d="" fill="#FFAA00" transform="translate(0,0)"/>
<path d="" fill="#FFFF00" transform="translate(0,0)"/>
<path d="" fill="#FFFF00" transform="translate(0,0)"/>
<path d="" fill="#FFAA00" transform="translate(0,0)"/>
<path d="" fill="#FFFF00" transform="translate(0,0)"/>
<path d="" fill="#FFBF00" transform="translate(0,0)"/>
<path d="" fill="#FFFF00" transform="translate(0,0)"/>
<path d="" fill="#FFFF00" transform="translate(0,0)"/>
<path d="" fill="#FFFF00" transform="translate(0,0)"/>
<path d="" fill="#FFAA00" transform="translate(0,0)"/>
<path d="" fill="#FFFF00" transform="translate(0,0)"/>
<path d="" fill="#FFBF00" transform="translate(0,0)"/>
<path d="" fill="#FFAA00" transform="translate(0,0)"/>
<path d="" fill="#FFAA00" transform="translate(0,0)"/>
<path d="" fill="#FFFF00" transform="translate(0,0)"/>
<path d="" fill="#FFAA00" transform="translate(0,0)"/>
<path d="" fill="#FFBF00" transform="translate(0,0)"/>
<path d="" fill="#FFFF00" transform="translate(0,0)"/>
<path d="" fill="#FFFF00" transform="translate(0,0)"/>
<path d="" fill="#FFFF00" transform="translate(0,0)"/>
<path d="" fill="#FFFF00" transform="translate(0,0)"/>
<path d="" fill="#FFAA00" transform="translate(0,0)"/>
<path d="" fill="#FFFF00" transform="translate(0,0)"/>
<path d="" fill="#FFAA00" transform="translate(0,0)"/>
<path d="" fill="#FFBF00" transform="translate(0,0)"/>
<path d="" fill="#FFBF00" transform="translate(0,0)"/>
<path d="" fill="#FFAA00" transform="translate(0,0)"/>
<path d="" fill="#FFFF00" transform="translate(0,0)"/>
<path d="" fill="#FFAA00" transform="translate(0,0)"/>
<path d="" fill="#FFFF00" transform="translate(0,0)"/>
<path d="" fill="#FFAA00" transform="translate(0,0)"/>
<path d="" fill="#FFBF00" transform="translate(0,0)"/>
<path d="" fill="#FFFF00" transform="translate(0,0)"/>
<path d="" fill="#FFAA00" transform="translate(0,0)"/>
<path d="" fill="#FFAA00" transform="translate(0,0)"/>
<path d="" fill="#FFFF00" transform="translate(0,0)"/>
<path d="" fill="#FFBF00" transform="translate(0,0)"/>
<path d="" fill="#FFBF00" transform="translate(0,0)"/>
<path d="" fill="#FFFF00" transform="translate(0,0)"/>
<path d="" fill="#FFFF00" transform="translate(0,0)"/>
<path d="" fill="#FFAA00" transform="translate(0,0)"/>
<path d="" fill="#FFFF00" transform="translate(0,0)"/>
<path d="" fill="#FFFF00" transform="translate(0,0)"/>
<path d="" fill="#FFFF00" transform="translate(0,0)"/>
<path d="" fill="#FFBF00" transform="translate(0,0)"/>
<path d="" fill="#FFAA00" transform="translate(0,0)"/>
<path d="" fill="#FFAA00" transform="translate(0,0)"/>
<path d="" fill="#FFFF00" transform="translate(0,0)"/>
<path d="" fill="#FFFF00" transform="translate(0,0)"/>
<path d="" fill="#FFBF00" transform="translate(0,0)"/>
<path d="" fill="#FFBF00" transform="translate(0,0)"/>
<path d="" fill="#FFAA00" transform="translate(0,0)"/>
<path d="" fill="#FFAA00" transform="translate(0,0)"/>
<path d="" fill="#FFFF00" transform="translate(0,0)"/>
<path d="" fill="#FFBF00" transform="translate(0,0)"/>
<path d="" fill="#FFAA00" transform="translate(0,0)"/>
<path d="" fill="#FFFF00" transform="translate(0,0)"/>
<path d="" fill="#FFBF00" transform="translate(0,0)"/>
<path d="" fill="#FFFF00" transform="translate(0,0)"/>
<path d="" fill="#FFAA00" transform="translate(0,0)"/>
<path d="" fill="#FFBF00" transform="translate(0,0)"/>
<path d="" fill="#FFAA00" transform="translate(0,0)"/>
<path d="" fill="#FFFF00" transform="translate(0,0)"/>
<path d="" fill="#FFBF00" transform="translate(0,0)"/>
<path d="" fill="#FFAA00" transform="translate(0,0)"/>
<path d="" fill="#FFFF00" transform="translate(0,0)"/>
<path d="" fill="#FF7F00" transform="translate(0,0)"/>
<path d="" fill="#FFAA00" transform="translate(0,0)"/>
<path d="" fill="#FFBF00" transform="translate(0,0)"/>
<path d="" fill="#FFAA00" transform="translate(0,0)"/>
<path d="" fill="#FFFF00" transform="translate(0,0)"/>
<path d="" fill="#FFBF00" transform="translate(0,0)"/>
<path d="" fill="#FFAA00" transform="translate(0,0)"/>
<path d="" fill="#FFBF00" transform="translate(0,0)"/>
<path d="" fill="#FFFF00" transform="translate(0,0)"/>
<path d="" fill="#FFFF00" transform="translate(0,0)"/>
<path d="" fill="#FFFF00" transform="translate(0,0)"/>
<path d="" fill="#FFFF00" transform="translate(0,0)"/>
<path d="" fill="#FFAA00" transform="translate(0,0)"/>
<path d="" fill="#FFBF00" transform="translate(0,0)"/>
<path d="" fill="#FFFF00" transform="translate(0,0)"/>
<path d="" fill="#FFFF00" transform="translate(0,0)"/>
<path d="" fill="#FFFF00" transform="translate(0,0)"/>
<path d="" fill="#FFFF00" transform="translate(0,0)"/>
<path d="" fill="#FFAA00" transform="translate(0,0)"/>
<path d="" fill="#FFAA00" transform="translate(0,0)"/>
<path d="" fill="#FFAA00" transform="translate(0,0)"/>
<path d="" fill="#FFBF00" transform="translate(0,0)"/>
<path d="" fill="#FFAA00" transform="translate(0,0)"/>
<path d="" fill="#FFFF00" transform="translate(0,0)"/>
<path d="" fill="#FFFF00" transform="translate(0,0)"/>
<path d="" fill="#FFFF00" transform="translate(0,0)"/>
<path d="" fill="#FFAA00" transform="translate(0,0)"/>
<path d="" fill="#FF7F00" transform="translate(0,0)"/>
<path d="" fill="#FFFF00" transform="translate(0,0)"/>
<path d="" fill="#FFFF00" transform="translate(0,0)"/>
<path d="" fill="#FFFF00" transform="translate(0,0)"/>
<path d="" fill="#FFFF00" transform="translate(0,0)"/>
<path d="" fill="#FF7F00" transform="translate(0,0)"/>
<path d="" fill="#FFAA00" transform="translate(0,0)"/>
</svg>
